<svg width="49" height="49" viewBox="0 0 49 49" fill="none" xmlns="http://www.w3.org/2000/svg">
<path fill-rule="evenodd" clip-rule="evenodd" d="M24.4616 0.529297C37.7035 0.529297 48.4544 11.2801 48.4544 24.5221C48.4544 37.7641 37.7035 48.5149 24.4616 48.5149C11.2196 48.5149 0.46875 37.7641 0.46875 24.5221C0.46875 11.2801 11.2196 0.529297 24.4616 0.529297ZM20.2356 37.2831C30.8527 37.2831 36.6579 28.4854 36.6579 20.8609C36.6579 20.6095 36.6579 20.3581 36.6459 20.1187C37.771 19.3048 38.7526 18.2874 39.5306 17.1263C38.5012 17.5812 37.388 17.8924 36.215 18.036C37.412 17.3178 38.3216 16.1927 38.7526 14.8402C37.6393 15.4985 36.4065 15.9772 35.0898 16.2406C34.0365 15.1154 32.5403 14.4212 30.8766 14.4212C27.6926 14.4212 25.1072 17.0066 25.1072 20.1906C25.1072 20.6454 25.1551 21.0882 25.2628 21.5072C20.463 21.2678 16.2138 18.9697 13.3651 15.4745C12.8743 16.3244 12.587 17.3178 12.587 18.3711C12.587 20.37 13.6044 22.1416 15.1605 23.1709C14.2149 23.147 13.3291 22.8837 12.5511 22.4528V22.5246C12.5511 25.3255 14.538 27.6476 17.1833 28.1863C16.7046 28.3179 16.1899 28.3897 15.6632 28.3897C15.2921 28.3897 14.933 28.3538 14.574 28.282C15.3041 30.5801 17.4347 32.244 19.9603 32.2918C17.9853 33.8359 15.4957 34.7576 12.7905 34.7576C12.3236 34.7576 11.8688 34.7336 11.414 34.6738C13.9396 36.3256 16.9798 37.2831 20.2356 37.2831Z" fill="#983FD6"/>
</svg>
