<svg width="185" height="56" viewBox="0 0 185 56" fill="none" xmlns="http://www.w3.org/2000/svg">
<circle cx="28.2656" cy="27.8438" r="27.5" fill="#F8EFFF"/>
<path d="M77.3636 35.3262V20.7807H79.5582V33.437H86.1491V35.3262H77.3636ZM93.1839 35.5463C92.1091 35.5463 91.1835 35.3167 90.407 34.8574C89.6352 34.3934 89.0386 33.7424 88.6172 32.9043C88.2005 32.0615 87.9922 31.0743 87.9922 29.9426C87.9922 28.8252 88.2005 27.8404 88.6172 26.9881C89.0386 26.1358 89.6257 25.4706 90.3786 24.9924C91.1361 24.5141 92.0215 24.275 93.0348 24.275C93.6503 24.275 94.2469 24.3768 94.8246 24.5804C95.4022 24.784 95.9207 25.1036 96.38 25.5392C96.8393 25.9748 97.2015 26.5407 97.4666 27.2367C97.7318 27.928 97.8643 28.7684 97.8643 29.758V30.5108H89.1925V28.9199H95.7834C95.7834 28.3612 95.6697 27.8664 95.4425 27.4355C95.2152 26.9999 94.8956 26.6567 94.4837 26.4057C94.0765 26.1548 93.5982 26.0293 93.049 26.0293C92.4524 26.0293 91.9316 26.1761 91.4865 26.4696C91.0462 26.7585 90.7053 27.1373 90.4638 27.606C90.227 28.07 90.1087 28.5743 90.1087 29.1188V30.3617C90.1087 31.0908 90.2365 31.7111 90.4922 32.2225C90.7526 32.7338 91.1148 33.1245 91.5788 33.3944C92.0429 33.6595 92.585 33.7921 93.2053 33.7921C93.6077 33.7921 93.9747 33.7353 94.3061 33.6216C94.6375 33.5033 94.924 33.3281 95.1655 33.0961C95.407 32.8641 95.5916 32.5776 95.7195 32.2367L97.7294 32.5989C97.5684 33.1908 97.2796 33.7092 96.8629 34.1543C96.451 34.5946 95.9325 34.9379 95.3075 35.1841C94.6873 35.4256 93.9794 35.5463 93.1839 35.5463ZM103.395 35.5676C102.704 35.5676 102.079 35.4398 101.52 35.1841C100.962 34.9237 100.519 34.5473 100.192 34.0549C99.8701 33.5624 99.7092 32.9587 99.7092 32.2438C99.7092 31.6283 99.8275 31.1216 100.064 30.7239C100.301 30.3262 100.621 30.0113 101.023 29.7793C101.426 29.5473 101.875 29.3721 102.373 29.2537C102.87 29.1354 103.376 29.0454 103.892 28.9838C104.546 28.9081 105.076 28.8465 105.483 28.7992C105.891 28.7471 106.186 28.6642 106.371 28.5506C106.556 28.437 106.648 28.2523 106.648 27.9966V27.9469C106.648 27.3266 106.473 26.8461 106.123 26.5051C105.777 26.1642 105.261 25.9938 104.574 25.9938C103.859 25.9938 103.296 26.1524 102.884 26.4696C102.477 26.7821 102.195 27.1301 102.039 27.5137L100.043 27.0591C100.28 26.3962 100.625 25.8612 101.08 25.454C101.539 25.0421 102.067 24.7438 102.664 24.5591C103.26 24.3697 103.888 24.275 104.546 24.275C104.981 24.275 105.443 24.3271 105.931 24.4313C106.423 24.5307 106.882 24.7154 107.309 24.9853C107.739 25.2551 108.092 25.641 108.367 26.1429C108.641 26.6401 108.779 27.2864 108.779 28.0819V35.3262H106.705V33.8347H106.62C106.482 34.1093 106.276 34.3792 106.002 34.6444C105.727 34.9095 105.374 35.1297 104.944 35.3049C104.513 35.4801 103.997 35.5676 103.395 35.5676ZM103.857 33.8631C104.444 33.8631 104.946 33.7471 105.363 33.5151C105.784 33.2831 106.104 32.9801 106.321 32.606C106.544 32.2272 106.655 31.8224 106.655 31.3915V29.9853C106.579 30.061 106.433 30.132 106.215 30.1983C106.002 30.2599 105.758 30.3143 105.483 30.3617C105.209 30.4043 104.941 30.4445 104.681 30.4824C104.42 30.5156 104.203 30.544 104.027 30.5676C103.615 30.6197 103.239 30.7073 102.898 30.8304C102.562 30.9535 102.292 31.1311 102.088 31.3631C101.89 31.5904 101.79 31.8934 101.79 32.2722C101.79 32.7978 101.984 33.1955 102.373 33.4654C102.761 33.7305 103.256 33.8631 103.857 33.8631ZM111.607 35.3262V24.4171H113.66V26.15H113.773C113.972 25.5629 114.323 25.1013 114.825 24.7651C115.331 24.4242 115.904 24.2537 116.543 24.2537C116.676 24.2537 116.832 24.2585 117.012 24.2679C117.197 24.2774 117.341 24.2892 117.445 24.3034V26.3347C117.36 26.311 117.209 26.285 116.991 26.2566C116.773 26.2234 116.555 26.2069 116.337 26.2069C115.835 26.2069 115.388 26.3134 114.995 26.5265C114.607 26.7348 114.299 27.026 114.072 27.4C113.844 27.7694 113.731 28.1908 113.731 28.6642V35.3262H111.607ZM121.407 28.8489V35.3262H119.283V24.4171H121.321V26.1926H121.456C121.707 25.615 122.1 25.151 122.635 24.8006C123.175 24.4502 123.855 24.275 124.674 24.275C125.417 24.275 126.068 24.4313 126.627 24.7438C127.185 25.0516 127.619 25.5108 127.926 26.1216C128.234 26.7324 128.388 27.4876 128.388 28.3873V35.3262H126.265V28.6429C126.265 27.8522 126.059 27.2343 125.647 26.7892C125.235 26.3394 124.669 26.1145 123.949 26.1145C123.457 26.1145 123.019 26.2211 122.635 26.4341C122.257 26.6472 121.956 26.9597 121.733 27.3716C121.516 27.7788 121.407 28.2712 121.407 28.8489ZM136.529 35.3262V24.4171H138.567V26.1926H138.702C138.93 25.5913 139.301 25.1226 139.817 24.7864C140.334 24.4455 140.951 24.275 141.671 24.275C142.4 24.275 143.011 24.4455 143.504 24.7864C144.001 25.1273 144.368 25.5961 144.604 26.1926H144.718C144.978 25.6103 145.393 25.1462 145.961 24.8006C146.529 24.4502 147.206 24.275 147.992 24.275C148.982 24.275 149.789 24.5852 150.414 25.2054C151.044 25.8257 151.359 26.7608 151.359 28.0108V35.3262H149.235V28.2097C149.235 27.4711 149.034 26.936 148.631 26.6046C148.229 26.2731 147.748 26.1074 147.19 26.1074C146.498 26.1074 145.961 26.3205 145.577 26.7466C145.194 27.168 145.002 27.7102 145.002 28.373V35.3262H142.886V28.0748C142.886 27.4829 142.701 27.007 142.332 26.6472C141.962 26.2873 141.482 26.1074 140.89 26.1074C140.487 26.1074 140.116 26.214 139.775 26.427C139.439 26.6354 139.166 26.9266 138.958 27.3006C138.754 27.6747 138.653 28.1079 138.653 28.6003V35.3262H136.529ZM158.8 35.5463C157.777 35.5463 156.885 35.312 156.123 34.8432C155.36 34.3745 154.768 33.7187 154.347 32.8759C153.926 32.0331 153.715 31.0482 153.715 29.9213C153.715 28.7897 153.926 27.8001 154.347 26.9526C154.768 26.1051 155.36 25.4469 156.123 24.9782C156.885 24.5094 157.777 24.275 158.8 24.275C159.823 24.275 160.715 24.5094 161.478 24.9782C162.24 25.4469 162.832 26.1051 163.253 26.9526C163.675 27.8001 163.885 28.7897 163.885 29.9213C163.885 31.0482 163.675 32.0331 163.253 32.8759C162.832 33.7187 162.24 34.3745 161.478 34.8432C160.715 35.312 159.823 35.5463 158.8 35.5463ZM158.807 33.7637C159.47 33.7637 160.019 33.5885 160.455 33.2381C160.891 32.8877 161.212 32.4213 161.421 31.839C161.634 31.2566 161.74 30.615 161.74 29.9142C161.74 29.2182 161.634 28.579 161.421 27.9966C161.212 27.4095 160.891 26.9384 160.455 26.5833C160.019 26.2282 159.47 26.0506 158.807 26.0506C158.14 26.0506 157.586 26.2282 157.145 26.5833C156.71 26.9384 156.385 27.4095 156.172 27.9966C155.964 28.579 155.86 29.2182 155.86 29.9142C155.86 30.615 155.964 31.2566 156.172 31.839C156.385 32.4213 156.71 32.8877 157.145 33.2381C157.586 33.5885 158.14 33.7637 158.807 33.7637ZM166.256 35.3262V24.4171H168.308V26.15H168.422C168.621 25.5629 168.971 25.1013 169.473 24.7651C169.98 24.4242 170.553 24.2537 171.192 24.2537C171.324 24.2537 171.481 24.2585 171.661 24.2679C171.845 24.2774 171.99 24.2892 172.094 24.3034V26.3347C172.009 26.311 171.857 26.285 171.639 26.2566C171.421 26.2234 171.204 26.2069 170.986 26.2069C170.484 26.2069 170.036 26.3134 169.643 26.5265C169.255 26.7348 168.947 27.026 168.72 27.4C168.493 27.7694 168.379 28.1908 168.379 28.6642V35.3262H166.256ZM178.243 35.5463C177.168 35.5463 176.242 35.3167 175.466 34.8574C174.694 34.3934 174.097 33.7424 173.676 32.9043C173.259 32.0615 173.051 31.0743 173.051 29.9426C173.051 28.8252 173.259 27.8404 173.676 26.9881C174.097 26.1358 174.684 25.4706 175.437 24.9924C176.195 24.5141 177.08 24.275 178.093 24.275C178.709 24.275 179.306 24.3768 179.883 24.5804C180.461 24.784 180.979 25.1036 181.439 25.5392C181.898 25.9748 182.26 26.5407 182.525 27.2367C182.79 27.928 182.923 28.7684 182.923 29.758V30.5108H174.251V28.9199H180.842C180.842 28.3612 180.728 27.8664 180.501 27.4355C180.274 26.9999 179.954 26.6567 179.542 26.4057C179.135 26.1548 178.657 26.0293 178.108 26.0293C177.511 26.0293 176.99 26.1761 176.545 26.4696C176.105 26.7585 175.764 27.1373 175.522 27.606C175.286 28.07 175.167 28.5743 175.167 29.1188V30.3617C175.167 31.0908 175.295 31.7111 175.551 32.2225C175.811 32.7338 176.173 33.1245 176.637 33.3944C177.101 33.6595 177.644 33.7921 178.264 33.7921C178.666 33.7921 179.033 33.7353 179.365 33.6216C179.696 33.5033 179.983 33.3281 180.224 33.0961C180.466 32.8641 180.65 32.5776 180.778 32.2367L182.788 32.5989C182.627 33.1908 182.338 33.7092 181.922 34.1543C181.51 34.5946 180.991 34.9379 180.366 35.1841C179.746 35.4256 179.038 35.5463 178.243 35.5463Z" fill="#F8EFFF"/>
<path d="M19.4023 26.8438C18.8501 26.8438 18.4023 27.2915 18.4023 27.8438C18.4023 28.396 18.8501 28.8438 19.4023 28.8438V26.8438ZM37.8313 28.5509C38.2218 28.1603 38.2218 27.5272 37.8313 27.1366L31.4673 20.7727C31.0768 20.3822 30.4436 20.3822 30.0531 20.7727C29.6626 21.1632 29.6626 21.7964 30.0531 22.1869L35.7099 27.8438L30.0531 33.5006C29.6626 33.8911 29.6626 34.5243 30.0531 34.9148C30.4436 35.3053 31.0768 35.3053 31.4673 34.9148L37.8313 28.5509ZM19.4023 28.8438H37.1242V26.8438H19.4023V28.8438Z" fill="#983FD6"/>
</svg>
