<svg width="211" height="56" viewBox="0 0 211 56" fill="none" xmlns="http://www.w3.org/2000/svg">
<circle cx="27.5039" cy="27.9727" r="27.5" fill="#453551"/>
<path d="M76.6019 20.9096H79.2653L83.896 32.2164H84.0664L88.6971 20.9096H91.3604V35.4551H89.2724V24.9295H89.1374L84.8477 35.4338H83.1147L78.8249 24.9224H78.69V35.4551H76.6019V20.9096ZM98.9759 35.6752C97.9531 35.6752 97.0606 35.4409 96.2983 34.9721C95.536 34.5034 94.9441 33.8476 94.5227 33.0048C94.1013 32.162 93.8906 31.1771 93.8906 30.0502C93.8906 28.9186 94.1013 27.929 94.5227 27.0815C94.9441 26.234 95.536 25.5758 96.2983 25.1071C97.0606 24.6383 97.9531 24.4039 98.9759 24.4039C99.9986 24.4039 100.891 24.6383 101.653 25.1071C102.416 25.5758 103.008 26.234 103.429 27.0815C103.85 27.929 104.061 28.9186 104.061 30.0502C104.061 31.1771 103.85 32.162 103.429 33.0048C103.008 33.8476 102.416 34.5034 101.653 34.9721C100.891 35.4409 99.9986 35.6752 98.9759 35.6752ZM98.983 33.8926C99.6458 33.8926 100.195 33.7174 100.631 33.367C101.066 33.0166 101.388 32.5502 101.597 31.9679C101.81 31.3855 101.916 30.7439 101.916 30.0431C101.916 29.3471 101.81 28.7079 101.597 28.1255C101.388 27.5384 101.066 27.0673 100.631 26.7122C100.195 26.3571 99.6458 26.1795 98.983 26.1795C98.3153 26.1795 97.7614 26.3571 97.321 26.7122C96.8854 27.0673 96.5611 27.5384 96.348 28.1255C96.1397 28.7079 96.0355 29.3471 96.0355 30.0431C96.0355 30.7439 96.1397 31.3855 96.348 31.9679C96.5611 32.5502 96.8854 33.0166 97.321 33.367C97.7614 33.7174 98.3153 33.8926 98.983 33.8926ZM106.431 35.4551V24.546H108.484V26.2789H108.598C108.797 25.6918 109.147 25.2302 109.649 24.894C110.155 24.5531 110.728 24.3826 111.368 24.3826C111.5 24.3826 111.656 24.3874 111.836 24.3968C112.021 24.4063 112.165 24.4181 112.27 24.4324V26.4636C112.184 26.4399 112.033 26.4139 111.815 26.3855C111.597 26.3523 111.379 26.3358 111.162 26.3358C110.66 26.3358 110.212 26.4423 109.819 26.6554C109.431 26.8637 109.123 27.1549 108.896 27.5289C108.669 27.8983 108.555 28.3197 108.555 28.7931V35.4551H106.431ZM118.418 35.6752C117.344 35.6752 116.418 35.4456 115.641 34.9863C114.87 34.5223 114.273 33.8713 113.852 33.0332C113.435 32.1904 113.227 31.2032 113.227 30.0716C113.227 28.9541 113.435 27.9693 113.852 27.117C114.273 26.2647 114.86 25.5995 115.613 25.1213C116.371 24.6431 117.256 24.4039 118.269 24.4039C118.885 24.4039 119.481 24.5057 120.059 24.7093C120.637 24.9129 121.155 25.2325 121.614 25.6681C122.074 26.1038 122.436 26.6696 122.701 27.3656C122.966 28.0569 123.099 28.8973 123.099 29.8869V30.6397H114.427V29.0488H121.018C121.018 28.4901 120.904 27.9953 120.677 27.5645C120.45 27.1288 120.13 26.7856 119.718 26.5346C119.311 26.2837 118.833 26.1582 118.283 26.1582C117.687 26.1582 117.166 26.305 116.721 26.5985C116.281 26.8874 115.94 27.2662 115.698 27.7349C115.461 28.1989 115.343 28.7032 115.343 29.2477V30.4906C115.343 31.2198 115.471 31.84 115.727 32.3514C115.987 32.8627 116.349 33.2534 116.813 33.5233C117.277 33.7884 117.819 33.921 118.44 33.921C118.842 33.921 119.209 33.8642 119.54 33.7505C119.872 33.6322 120.158 33.457 120.4 33.225C120.641 32.993 120.826 32.7065 120.954 32.3656L122.964 32.7278C122.803 33.3197 122.514 33.8381 122.097 34.2832C121.685 34.7235 121.167 35.0668 120.542 35.313C119.922 35.5545 119.214 35.6752 118.418 35.6752ZM133.923 35.6966C133.231 35.6966 132.606 35.5687 132.048 35.313C131.489 35.0526 131.046 34.6762 130.719 34.1838C130.397 33.6913 130.237 33.0877 130.237 32.3727C130.237 31.7572 130.355 31.2505 130.592 30.8528C130.828 30.4551 131.148 30.1402 131.55 29.9082C131.953 29.6762 132.403 29.501 132.9 29.3826C133.397 29.2643 133.904 29.1743 134.42 29.1127C135.073 29.037 135.603 28.9754 136.011 28.9281C136.418 28.876 136.714 28.7931 136.898 28.6795C137.083 28.5659 137.175 28.3812 137.175 28.1255V28.0758C137.175 27.4556 137 26.975 136.65 26.6341C136.304 26.2931 135.788 26.1227 135.102 26.1227C134.387 26.1227 133.823 26.2813 133.411 26.5985C133.004 26.911 132.722 27.2591 132.566 27.6426L130.57 27.188C130.807 26.5252 131.153 25.9901 131.607 25.5829C132.067 25.171 132.594 24.8727 133.191 24.688C133.788 24.4986 134.415 24.4039 135.073 24.4039C135.509 24.4039 135.97 24.456 136.458 24.5602C136.951 24.6596 137.41 24.8443 137.836 25.1142C138.267 25.3841 138.62 25.7699 138.894 26.2718C139.169 26.769 139.306 27.4153 139.306 28.2108V35.4551H137.232V33.9636H137.147C137.01 34.2382 136.804 34.5081 136.529 34.7733C136.254 35.0384 135.902 35.2586 135.471 35.4338C135.04 35.609 134.524 35.6966 133.923 35.6966ZM134.384 33.992C134.971 33.992 135.473 33.876 135.89 33.644C136.311 33.412 136.631 33.109 136.849 32.7349C137.071 32.3561 137.183 31.9513 137.183 31.5204V30.1142C137.107 30.1899 136.96 30.2609 136.742 30.3272C136.529 30.3888 136.285 30.4432 136.011 30.4906C135.736 30.5332 135.469 30.5734 135.208 30.6113C134.948 30.6445 134.73 30.6729 134.555 30.6966C134.143 30.7486 133.766 30.8362 133.425 30.9593C133.089 31.0824 132.819 31.26 132.616 31.492C132.417 31.7193 132.317 32.0223 132.317 32.4011C132.317 32.9267 132.512 33.3244 132.9 33.5943C133.288 33.8594 133.783 33.992 134.384 33.992ZM144.258 28.9778V35.4551H142.135V24.546H144.173V26.3216H144.308C144.559 25.7439 144.952 25.2799 145.487 24.9295C146.027 24.5791 146.706 24.4039 147.525 24.4039C148.269 24.4039 148.92 24.5602 149.478 24.8727C150.037 25.1805 150.47 25.6397 150.778 26.2505C151.086 26.8613 151.24 27.6165 151.24 28.5162V35.4551H149.116V28.7718C149.116 27.9811 148.91 27.3632 148.498 26.9181C148.086 26.4683 147.52 26.2434 146.801 26.2434C146.308 26.2434 145.87 26.35 145.487 26.563C145.108 26.7761 144.807 27.0886 144.585 27.5005C144.367 27.9077 144.258 28.4002 144.258 28.9778ZM162.262 27.2093L160.338 27.5502C160.257 27.304 160.129 27.0697 159.954 26.8471C159.784 26.6246 159.552 26.4423 159.258 26.3002C158.965 26.1582 158.598 26.0872 158.157 26.0872C157.556 26.0872 157.054 26.2221 156.652 26.492C156.249 26.7572 156.048 27.1004 156.048 27.5218C156.048 27.8864 156.183 28.18 156.453 28.4025C156.723 28.6251 157.158 28.8074 157.76 28.9494L159.493 29.3471C160.496 29.5791 161.244 29.9366 161.737 30.4196C162.229 30.9025 162.475 31.5299 162.475 32.3017C162.475 32.9551 162.286 33.5375 161.907 34.0488C161.533 34.5555 161.01 34.9532 160.338 35.242C159.67 35.5308 158.896 35.6752 158.015 35.6752C156.794 35.6752 155.797 35.4148 155.025 34.894C154.253 34.3684 153.78 33.6227 153.605 32.6568L155.657 32.3443C155.785 32.8793 156.048 33.2842 156.446 33.5588C156.843 33.8287 157.362 33.9636 158.001 33.9636C158.697 33.9636 159.253 33.8192 159.67 33.5304C160.087 33.2368 160.295 32.8793 160.295 32.4579C160.295 32.117 160.167 31.8306 159.912 31.5985C159.661 31.3665 159.275 31.1913 158.754 31.073L156.907 30.6681C155.889 30.4361 155.136 30.0668 154.649 29.5602C154.166 29.0536 153.924 28.412 153.924 27.6355C153.924 26.9915 154.104 26.4281 154.464 25.9451C154.824 25.4622 155.321 25.0858 155.956 24.8159C156.59 24.5413 157.317 24.4039 158.136 24.4039C159.315 24.4039 160.243 24.6596 160.92 25.171C161.597 25.6776 162.045 26.3571 162.262 27.2093ZM167.175 35.4551L163.965 24.546H166.16L168.298 32.5574H168.404L170.549 24.546H172.744L174.874 32.5218H174.981L177.104 24.546H179.299L176.096 35.4551H173.93L171.714 27.5787H171.55L169.335 35.4551H167.175ZM185.684 35.6752C184.609 35.6752 183.683 35.4456 182.907 34.9863C182.135 34.5223 181.539 33.8713 181.117 33.0332C180.701 32.1904 180.492 31.2032 180.492 30.0716C180.492 28.9541 180.701 27.9693 181.117 27.117C181.539 26.2647 182.126 25.5995 182.879 25.1213C183.636 24.6431 184.522 24.4039 185.535 24.4039C186.15 24.4039 186.747 24.5057 187.325 24.7093C187.902 24.9129 188.421 25.2325 188.88 25.6681C189.339 26.1038 189.701 26.6696 189.967 27.3656C190.232 28.0569 190.364 28.8973 190.364 29.8869V30.6397H181.692V29.0488H188.283C188.283 28.4901 188.17 27.9953 187.942 27.5645C187.715 27.1288 187.396 26.7856 186.984 26.5346C186.576 26.2837 186.098 26.1582 185.549 26.1582C184.952 26.1582 184.432 26.305 183.987 26.5985C183.546 26.8874 183.205 27.2662 182.964 27.7349C182.727 28.1989 182.609 28.7032 182.609 29.2477V30.4906C182.609 31.2198 182.737 31.84 182.992 32.3514C183.253 32.8627 183.615 33.2534 184.079 33.5233C184.543 33.7884 185.085 33.921 185.705 33.921C186.108 33.921 186.475 33.8642 186.806 33.7505C187.138 33.6322 187.424 33.457 187.665 33.225C187.907 32.993 188.092 32.7065 188.219 32.3656L190.229 32.7278C190.068 33.3197 189.78 33.8381 189.363 34.2832C188.951 34.7235 188.433 35.0668 187.808 35.313C187.187 35.5545 186.479 35.6752 185.684 35.6752ZM192.721 35.4551V24.546H194.773V26.2789H194.887C195.086 25.6918 195.436 25.2302 195.938 24.894C196.444 24.5531 197.017 24.3826 197.657 24.3826C197.789 24.3826 197.945 24.3874 198.125 24.3968C198.31 24.4063 198.454 24.4181 198.559 24.4324V26.4636C198.473 26.4399 198.322 26.4139 198.104 26.3855C197.886 26.3523 197.668 26.3358 197.451 26.3358C196.949 26.3358 196.501 26.4423 196.108 26.6554C195.72 26.8637 195.412 27.1549 195.185 27.5289C194.958 27.8983 194.844 28.3197 194.844 28.7931V35.4551H192.721ZM208.571 27.2093L206.646 27.5502C206.566 27.304 206.438 27.0697 206.263 26.8471C206.092 26.6246 205.86 26.4423 205.567 26.3002C205.273 26.1582 204.906 26.0872 204.466 26.0872C203.865 26.0872 203.363 26.2221 202.96 26.492C202.558 26.7572 202.357 27.1004 202.357 27.5218C202.357 27.8864 202.491 28.18 202.761 28.4025C203.031 28.6251 203.467 28.8074 204.068 28.9494L205.801 29.3471C206.805 29.5791 207.553 29.9366 208.045 30.4196C208.538 30.9025 208.784 31.5299 208.784 32.3017C208.784 32.9551 208.595 33.5375 208.216 34.0488C207.842 34.5555 207.319 34.9532 206.646 35.242C205.979 35.5308 205.205 35.6752 204.324 35.6752C203.102 35.6752 202.106 35.4148 201.334 34.894C200.562 34.3684 200.089 33.6227 199.913 32.6568L201.966 32.3443C202.094 32.8793 202.357 33.2842 202.754 33.5588C203.152 33.8287 203.67 33.9636 204.31 33.9636C205.006 33.9636 205.562 33.8192 205.979 33.5304C206.395 33.2368 206.604 32.8793 206.604 32.4579C206.604 32.117 206.476 31.8306 206.22 31.5985C205.969 31.3665 205.583 31.1913 205.062 31.073L203.216 30.6681C202.198 30.4361 201.445 30.0668 200.957 29.5602C200.474 29.0536 200.233 28.412 200.233 27.6355C200.233 26.9915 200.413 26.4281 200.773 25.9451C201.133 25.4622 201.63 25.0858 202.264 24.8159C202.899 24.5413 203.625 24.4039 204.445 24.4039C205.624 24.4039 206.552 24.6596 207.229 25.171C207.906 25.6776 208.353 26.3571 208.571 27.2093Z" fill="#453551"/>
<path d="M18.6406 26.9727C18.0883 26.9727 17.6406 27.4204 17.6406 27.9727C17.6406 28.5249 18.0883 28.9727 18.6406 28.9727V26.9727ZM37.0695 28.6798C37.4601 28.2892 37.4601 27.6561 37.0695 27.2655L30.7056 20.9016C30.3151 20.5111 29.6819 20.5111 29.2914 20.9016C28.9008 21.2921 28.9008 21.9253 29.2914 22.3158L34.9482 27.9727L29.2914 33.6295C28.9008 34.02 28.9008 34.6532 29.2914 35.0437C29.6819 35.4342 30.3151 35.4342 30.7056 35.0437L37.0695 28.6798ZM18.6406 28.9727H36.3624V26.9727H18.6406V28.9727Z" fill="#F8EFFF"/>
</svg>
