<svg width="49" height="49" viewBox="0 0 49 49" fill="none" xmlns="http://www.w3.org/2000/svg">
<path fill-rule="evenodd" clip-rule="evenodd" d="M48.0342 24.0885V25.7894C47.5983 38.2836 37.5957 48.3455 25.1258 48.8759H23.0543C10.6704 48.3492 0.719993 38.4221 0.15625 26.0478V23.83C0.721438 11.424 10.7215 1.47774 23.1496 0.998047H25.0304C37.5447 1.48107 47.5972 11.5624 48.0342 24.0885ZM36.9949 21.9252C37.2576 21.924 37.52 21.9107 37.7815 21.8853H37.786V16.5617C33.6649 16.2605 30.3513 13.0506 29.9192 8.94116H25.3366L25.2888 31.2774C25.2888 34.0178 22.8686 36.1768 20.1282 36.1768C17.3883 36.1768 15.1671 33.9557 15.1671 31.2158C15.1671 28.4759 17.3883 26.2547 20.1282 26.2547C20.2806 26.2547 20.428 26.2749 20.5755 26.295C20.6266 26.302 20.6777 26.309 20.729 26.3151V21.5251C20.6822 21.5221 20.6354 21.5189 20.5887 21.5156C20.4361 21.5049 20.2835 21.4943 20.1282 21.4943C14.7598 21.4943 10.4078 25.8463 10.4078 31.2146C10.4078 36.583 14.7598 40.935 20.1282 40.935C25.4966 40.935 29.8486 36.583 29.8486 31.2146V18.0631C31.4268 20.4734 34.1138 21.9256 36.9949 21.9252Z" fill="#983FD6"/>
</svg>
