<svg width="49" height="48" viewBox="0 0 49 48" fill="none" xmlns="http://www.w3.org/2000/svg">
<path fill-rule="evenodd" clip-rule="evenodd" d="M24.7632 0C37.9754 0 48.7022 10.7267 48.7022 23.939C48.7022 37.1512 37.9754 47.8779 24.7632 47.8779C11.5509 47.8779 0.824219 37.1512 0.824219 23.939C0.824219 10.7267 11.5509 0 24.7632 0ZM20.5467 36.6713C31.1399 36.6713 36.9321 27.8934 36.9321 20.2859C36.9321 20.0351 36.9321 19.7843 36.9202 19.5454C38.0428 18.7334 39.0221 17.7182 39.7984 16.5598C38.7713 17.0136 37.6606 17.3241 36.4902 17.4674C37.6845 16.7508 38.5922 15.6282 39.0221 14.2788C37.9114 14.9356 36.6813 15.4132 35.3676 15.676C34.3166 14.5534 32.8238 13.8608 31.1638 13.8608C27.987 13.8608 25.4074 16.4404 25.4074 19.6171C25.4074 20.071 25.4552 20.5128 25.5626 20.9308C20.7736 20.692 16.5339 18.399 13.6916 14.9116C13.2019 15.7596 12.9153 16.7508 12.9153 17.8018C12.9153 19.7962 13.9304 21.5638 15.483 22.5908C14.5395 22.567 13.6557 22.3042 12.8795 21.8743V21.946C12.8795 24.7406 14.8619 27.0574 17.5013 27.5949C17.0236 27.7262 16.51 27.7979 15.9846 27.7979C15.6143 27.7979 15.2561 27.7621 14.8978 27.6904C15.6263 29.9834 17.7521 31.6435 20.272 31.6912C18.3014 33.2319 15.8174 34.1515 13.1183 34.1515C12.6525 34.1515 12.1987 34.1275 11.7449 34.0679C14.2648 35.7159 17.2983 36.6713 20.5467 36.6713Z" fill="#983FD6"/>
</svg>
