<svg width="28" height="23" viewBox="0 0 28 23" fill="none" xmlns="http://www.w3.org/2000/svg">
<path d="M27.9466 2.74037C26.9168 3.19666 25.8143 3.51057 24.6523 3.65294C25.8379 2.93403 26.7444 1.79685 27.1766 0.442138C26.0645 1.0965 24.8343 1.57047 23.5261 1.83841C22.4831 0.710073 20.9921 0 19.3375 0C16.1656 0 13.5949 2.59712 13.5949 5.79819C13.5949 6.2589 13.65 6.70104 13.7454 7.12018C8.974 6.89469 4.74425 4.57789 1.91538 1.07793C1.41838 1.93037 1.13575 2.92076 1.13575 3.99869C1.13575 6.01572 2.15162 7.78428 3.68725 8.82418C2.74837 8.79677 1.86462 8.53414 1.09025 8.10173V8.17159C1.09025 10.9845 3.06775 13.3296 5.69275 13.8637C5.21413 13.9919 4.70313 14.0662 4.18425 14.0662C3.81588 14.0662 3.46413 14.0299 3.11325 13.9645C3.85175 16.2671 5.96575 17.9437 8.48575 17.9941C6.52662 19.546 4.04338 20.471 1.36762 20.471C0.91175 20.471 0.45675 20.4489 0 20.3932C2.55238 22.0379 5.565 23 8.81912 23C19.3777 23 25.1475 14.1617 25.1475 6.50738C25.1475 6.26332 25.1475 6.01484 25.1291 5.76547C26.2552 4.95459 27.23 3.92707 28 2.76248L27.9466 2.74037Z" fill="#F8EFFF"/>
</svg>
