<svg width="101" height="101" viewBox="0 0 101 101" fill="none" xmlns="http://www.w3.org/2000/svg">
<path d="M74.2644 44.4139C74.7878 47.3161 75.0257 50.2659 75.0257 53.2633C75.0257 73.8644 62.8934 91.6584 45.3848 99.9369C45.0518 100.127 45.0994 100.651 45.48 100.651C46.9549 100.793 48.4774 100.841 49.9999 100.841C77.5949 100.841 100.004 78.4318 100.004 50.8368C100.004 22.6233 76.5957 -0.166334 48.1443 0.880373C22.2145 1.83192 1.0901 22.9088 0.0433928 48.8386C-0.479961 62.2079 4.23022 74.4829 12.3184 83.713C12.5563 83.9508 12.9845 83.9033 13.0796 83.5702L27.9714 42.8914C28.019 42.7962 28.0666 42.6535 28.1142 42.5583C30.2552 31.901 39.7231 23.8128 50.999 23.8128C61.6088 23.8128 70.5534 30.9494 73.408 40.6552C73.4556 40.7504 73.5032 40.8931 73.5032 40.9883C73.5508 41.2262 73.6459 41.5116 73.6935 41.7971C73.7887 42.1777 73.8362 42.5108 73.9314 42.8914C73.979 43.0341 73.979 43.1768 74.0265 43.3672L74.2644 44.4139Z" fill="#983FD6"/>
</svg>
