<svg width="44" height="44" viewBox="0 0 44 44" fill="none" xmlns="http://www.w3.org/2000/svg">
<path fill-rule="evenodd" clip-rule="evenodd" d="M43.3577 21.3821V22.7631C43.0027 34.1 33.9366 43.2409 22.6301 43.715H20.7833C9.59928 43.246 0.607355 34.297 0.0703125 23.1306V21.0146C0.608301 9.82854 9.631 0.867621 20.8425 0.427734H22.5709C33.905 0.872429 43.0021 10.0254 43.3577 21.3821ZM33.3768 19.3484C33.6144 19.3473 33.8516 19.3353 34.088 19.3123H34.0921V14.4991C30.3661 14.2268 27.3703 11.3247 26.9796 7.60926H22.8363L22.7931 27.8039C22.7931 30.2815 20.605 32.2335 18.1273 32.2335C15.6501 32.2335 13.6419 30.2254 13.6419 27.7482C13.6419 25.271 15.6501 23.2628 18.1273 23.2628C18.2651 23.2628 18.3984 23.281 18.5317 23.2992C18.5779 23.3055 18.6241 23.3119 18.6705 23.3174V18.9866C18.6282 18.984 18.5859 18.981 18.5436 18.9781C18.4057 18.9684 18.2678 18.9588 18.1273 18.9588C13.2737 18.9588 9.33896 22.8935 9.33896 27.7472C9.33896 32.6008 13.2737 36.5355 18.1273 36.5355C22.981 36.5355 26.9157 32.6008 26.9157 27.7472V15.8566C28.3426 18.0358 30.772 19.3487 33.3768 19.3484Z" fill="#F8EFFF"/>
</svg>
