<svg width="44" height="44" viewBox="0 0 44 44" fill="none" xmlns="http://www.w3.org/2000/svg">
<path fill-rule="evenodd" clip-rule="evenodd" d="M21.8546 0.429688C33.8001 0.429688 43.4983 10.1279 43.4983 22.0734C43.4983 34.0188 33.8001 43.7171 21.8546 43.7171C9.90917 43.7171 0.210938 34.0188 0.210938 22.0734C0.210938 10.1279 9.90917 0.429688 21.8546 0.429688ZM18.0424 33.5849C27.62 33.5849 32.8568 25.6486 32.8568 18.7706C32.8568 18.5439 32.8568 18.3171 32.846 18.1011C33.861 17.3669 34.7464 16.4491 35.4482 15.4017C34.5197 15.812 33.5154 16.0928 32.4572 16.2223C33.5371 15.5744 34.3577 14.5595 34.7464 13.3394C33.7422 13.9332 32.6301 14.3651 31.4423 14.6027C30.4921 13.5877 29.1424 12.9615 27.6415 12.9615C24.7693 12.9615 22.4371 15.2937 22.4371 18.1659C22.4371 18.5762 22.4803 18.9757 22.5774 19.3536C18.2476 19.1377 14.4144 17.0646 11.8446 13.9116C11.4018 14.6783 11.1427 15.5744 11.1427 16.5246C11.1427 18.3278 12.0605 19.9259 13.4642 20.8545C12.6112 20.8329 11.8121 20.5954 11.1103 20.2067V20.2715C11.1103 22.7981 12.9027 24.8928 15.289 25.3788C14.8571 25.4975 14.3928 25.5623 13.9177 25.5623C13.5829 25.5623 13.259 25.5299 12.9351 25.4651C13.5938 27.5382 15.5157 29.0392 17.7941 29.0823C16.0124 30.4753 13.7666 31.3067 11.3262 31.3067C10.9051 31.3067 10.4948 31.2851 10.0845 31.2311C12.3629 32.7211 15.1054 33.5849 18.0424 33.5849Z" fill="#F8EFFF"/>
</svg>
