<svg width="49" height="48" viewBox="0 0 49 48" fill="none" xmlns="http://www.w3.org/2000/svg">
<path fill-rule="evenodd" clip-rule="evenodd" d="M24.4312 0C37.6434 0 48.3701 10.7267 48.3701 23.939C48.3701 37.1512 37.6434 47.8779 24.4312 47.8779C11.2189 47.8779 0.492188 37.1512 0.492188 23.939C0.492188 10.7267 11.2189 0 24.4312 0ZM38.7679 16.7365C38.4238 15.449 37.4099 14.4352 36.1224 14.0911C33.7886 13.4657 24.4312 13.4657 24.4312 13.4657C24.4312 13.4657 15.0737 13.4657 12.7399 14.0911C11.4527 14.4352 10.4385 15.449 10.0944 16.7365C9.4693 19.0701 9.4693 23.9392 9.4693 23.9392C9.4693 23.9392 9.4693 28.808 10.0944 31.1414C10.4385 32.429 11.4527 33.4431 12.7399 33.7871C15.0737 34.4123 24.4312 34.4123 24.4312 34.4123C24.4312 34.4123 33.7886 34.4123 36.1224 33.7871C37.4099 33.4431 38.4238 32.429 38.7679 31.1414C39.393 28.808 39.393 23.9392 39.393 23.9392C39.393 23.9392 39.393 19.0701 38.7679 16.7365ZM21.4387 28.4278V19.4505L29.213 23.9392L21.4387 28.4278Z" fill="#983FD6"/>
</svg>
