<svg width="56" height="56" viewBox="0 0 56 56" fill="none" xmlns="http://www.w3.org/2000/svg">
<circle cx="28.0039" cy="28.3086" r="27.5" fill="#453551"/>
<path d="M29 19.4473C29 18.895 28.5523 18.4473 28 18.4473C27.4477 18.4473 27 18.895 27 19.4473L29 19.4473ZM27.2929 37.8762C27.6834 38.2667 28.3166 38.2667 28.7071 37.8762L35.0711 31.5122C35.4616 31.1217 35.4616 30.4885 35.0711 30.098C34.6805 29.7075 34.0474 29.7075 33.6569 30.098L28 35.7549L22.3431 30.098C21.9526 29.7075 21.3195 29.7075 20.9289 30.098C20.5384 30.4885 20.5384 31.1217 20.9289 31.5122L27.2929 37.8762ZM27 19.4473L27 37.1691L29 37.1691L29 19.4473L27 19.4473Z" fill="#F8EFFF"/>
</svg>
