<svg width="12" height="15" viewBox="0 0 12 15" fill="none" xmlns="http://www.w3.org/2000/svg">
<path d="M6.75 0.833984C6.75 0.419771 6.41421 0.0839844 6 0.0839844C5.58579 0.0839844 5.25 0.419771 5.25 0.833984L6.75 0.833984ZM5.46967 14.4204C5.76256 14.7133 6.23744 14.7133 6.53033 14.4204L11.3033 9.64746C11.5962 9.35457 11.5962 8.87969 11.3033 8.5868C11.0104 8.29391 10.5355 8.29391 10.2426 8.5868L6 12.8294L1.75736 8.5868C1.46447 8.29391 0.989593 8.29391 0.696699 8.5868C0.403806 8.87969 0.403806 9.35457 0.6967 9.64746L5.46967 14.4204ZM5.25 0.833984L5.25 13.8901L6.75 13.8901L6.75 0.833984L5.25 0.833984Z" fill="#FAF4FF"/>
</svg>
