<svg width="184" height="56" viewBox="0 0 184 56" fill="none" xmlns="http://www.w3.org/2000/svg">
<circle cx="27.5" cy="27.5312" r="27.5" fill="#983FD6"/>
<path d="M76.598 35.0137V20.4682H78.7926V33.1245H85.3835V35.0137H76.598ZM92.4183 35.2338C91.3435 35.2338 90.4179 35.0042 89.6413 34.5449C88.8696 34.0809 88.273 33.4299 87.8516 32.5918C87.4349 31.749 87.2266 30.7618 87.2266 29.6301C87.2266 28.5127 87.4349 27.5279 87.8516 26.6756C88.273 25.8233 88.8601 25.1581 89.6129 24.6799C90.3705 24.2016 91.2559 23.9625 92.2692 23.9625C92.8847 23.9625 93.4813 24.0643 94.0589 24.2679C94.6366 24.4715 95.1551 24.7911 95.6143 25.2267C96.0736 25.6623 96.4358 26.2282 96.701 26.9242C96.9661 27.6155 97.0987 28.4559 97.0987 29.4455V30.1983H88.4268V28.6074H95.0178C95.0178 28.0487 94.9041 27.5539 94.6768 27.123C94.4496 26.6874 94.13 26.3442 93.718 26.0932C93.3108 25.8423 92.8326 25.7168 92.2834 25.7168C91.6868 25.7168 91.166 25.8636 90.7209 26.1571C90.2805 26.446 89.9396 26.8248 89.6982 27.2935C89.4614 27.7575 89.343 28.2618 89.343 28.8063V30.0492C89.343 30.7783 89.4709 31.3986 89.7266 31.91C89.987 32.4213 90.3492 32.812 90.8132 33.0819C91.2772 33.347 91.8194 33.4796 92.4396 33.4796C92.8421 33.4796 93.209 33.4228 93.5405 33.3091C93.8719 33.1908 94.1584 33.0156 94.3999 32.7836C94.6413 32.5516 94.826 32.2651 94.9538 31.9242L96.9638 32.2864C96.8028 32.8783 96.514 33.3967 96.0973 33.8418C95.6854 34.2821 95.1669 34.6254 94.5419 34.8716C93.9216 35.1131 93.2138 35.2338 92.4183 35.2338ZM102.63 35.2551C101.938 35.2551 101.313 35.1273 100.755 34.8716C100.196 34.6112 99.7532 34.2348 99.4265 33.7424C99.1045 33.2499 98.9435 32.6462 98.9435 31.9313C98.9435 31.3158 99.0619 30.8091 99.2987 30.4114C99.5354 30.0137 99.855 29.6988 100.257 29.4668C100.66 29.2348 101.11 29.0596 101.607 28.9412C102.104 28.8229 102.611 28.7329 103.127 28.6713C103.78 28.5956 104.31 28.534 104.718 28.4867C105.125 28.4346 105.421 28.3517 105.605 28.2381C105.79 28.1245 105.882 27.9398 105.882 27.6841V27.6344C105.882 27.0141 105.707 26.5336 105.357 26.1926C105.011 25.8517 104.495 25.6813 103.809 25.6813C103.094 25.6813 102.53 25.8399 102.118 26.1571C101.711 26.4696 101.429 26.8176 101.273 27.2012L99.2773 26.7466C99.5141 26.0837 99.8597 25.5487 100.314 25.1415C100.774 24.7296 101.301 24.4313 101.898 24.2466C102.495 24.0572 103.122 23.9625 103.78 23.9625C104.216 23.9625 104.677 24.0146 105.165 24.1188C105.658 24.2182 106.117 24.4029 106.543 24.6728C106.974 24.9426 107.327 25.3285 107.601 25.8304C107.876 26.3276 108.013 26.9739 108.013 27.7694V35.0137H105.939V33.5222H105.854C105.717 33.7968 105.511 34.0667 105.236 34.3319C104.962 34.597 104.609 34.8172 104.178 34.9924C103.747 35.1676 103.231 35.2551 102.63 35.2551ZM103.091 33.5506C103.678 33.5506 104.18 33.4346 104.597 33.2026C105.018 32.9706 105.338 32.6676 105.556 32.2935C105.778 31.9147 105.89 31.5099 105.89 31.079V29.6728C105.814 29.7485 105.667 29.8195 105.449 29.8858C105.236 29.9474 104.992 30.0018 104.718 30.0492C104.443 30.0918 104.176 30.132 103.915 30.1699C103.655 30.2031 103.437 30.2315 103.262 30.2551C102.85 30.3072 102.473 30.3948 102.132 30.5179C101.796 30.641 101.526 30.8186 101.323 31.0506C101.124 31.2779 101.025 31.5809 101.025 31.9597C101.025 32.4853 101.219 32.883 101.607 33.1529C101.995 33.418 102.49 33.5506 103.091 33.5506ZM110.842 35.0137V24.1046H112.894V25.8375H113.008C113.207 25.2504 113.557 24.7888 114.059 24.4526C114.566 24.1117 115.138 23.9412 115.778 23.9412C115.91 23.9412 116.067 23.946 116.246 23.9554C116.431 23.9649 116.576 23.9767 116.68 23.9909V26.0222C116.594 25.9985 116.443 25.9725 116.225 25.9441C116.007 25.9109 115.79 25.8944 115.572 25.8944C115.07 25.8944 114.622 26.0009 114.229 26.214C113.841 26.4223 113.533 26.7135 113.306 27.0875C113.079 27.4569 112.965 27.8783 112.965 28.3517V35.0137H110.842ZM120.641 28.5364V35.0137H118.517V24.1046H120.556V25.8801H120.691C120.942 25.3025 121.335 24.8385 121.87 24.4881C122.409 24.1377 123.089 23.9625 123.908 23.9625C124.651 23.9625 125.302 24.1188 125.861 24.4313C126.42 24.7391 126.853 25.1983 127.161 25.8091C127.469 26.4199 127.623 27.1751 127.623 28.0748V35.0137H125.499V28.3304C125.499 27.5397 125.293 26.9218 124.881 26.4767C124.469 26.0269 123.903 25.802 123.184 25.802C122.691 25.802 122.253 25.9086 121.87 26.1216C121.491 26.3347 121.19 26.6472 120.968 27.0591C120.75 27.4663 120.641 27.9587 120.641 28.5364ZM135.763 35.0137V24.1046H137.802V25.8801H137.937C138.164 25.2788 138.536 24.8101 139.052 24.4739C139.568 24.133 140.186 23.9625 140.906 23.9625C141.635 23.9625 142.246 24.133 142.738 24.4739C143.235 24.8148 143.602 25.2836 143.839 25.8801H143.952C144.213 25.2978 144.627 24.8337 145.195 24.4881C145.763 24.1377 146.441 23.9625 147.227 23.9625C148.216 23.9625 149.023 24.2727 149.648 24.8929C150.278 25.5132 150.593 26.4483 150.593 27.6983V35.0137H148.469V27.8972C148.469 27.1586 148.268 26.6235 147.866 26.2921C147.463 25.9606 146.983 25.7949 146.424 25.7949C145.733 25.7949 145.195 26.008 144.812 26.4341C144.428 26.8555 144.237 27.3977 144.237 28.0605V35.0137H142.12V27.7623C142.12 27.1704 141.935 26.6945 141.566 26.3347C141.197 25.9748 140.716 25.7949 140.124 25.7949C139.722 25.7949 139.35 25.9015 139.009 26.1145C138.673 26.3229 138.401 26.6141 138.192 26.9881C137.989 27.3622 137.887 27.7954 137.887 28.2878V35.0137H135.763ZM158.034 35.2338C157.012 35.2338 156.119 34.9995 155.357 34.5307C154.595 34.062 154.003 33.4062 153.581 32.5634C153.16 31.7206 152.949 30.7357 152.949 29.6088C152.949 28.4772 153.16 27.4876 153.581 26.6401C154.003 25.7926 154.595 25.1344 155.357 24.6657C156.119 24.1969 157.012 23.9625 158.034 23.9625C159.057 23.9625 159.95 24.1969 160.712 24.6657C161.474 25.1344 162.066 25.7926 162.488 26.6401C162.909 27.4876 163.12 28.4772 163.12 29.6088C163.12 30.7357 162.909 31.7206 162.488 32.5634C162.066 33.4062 161.474 34.062 160.712 34.5307C159.95 34.9995 159.057 35.2338 158.034 35.2338ZM158.042 33.4512C158.704 33.4512 159.254 33.276 159.689 32.9256C160.125 32.5752 160.447 32.1088 160.655 31.5265C160.868 30.9441 160.975 30.3025 160.975 29.6017C160.975 28.9057 160.868 28.2665 160.655 27.6841C160.447 27.097 160.125 26.6259 159.689 26.2708C159.254 25.9157 158.704 25.7381 158.042 25.7381C157.374 25.7381 156.82 25.9157 156.38 26.2708C155.944 26.6259 155.62 27.097 155.407 27.6841C155.198 28.2665 155.094 28.9057 155.094 29.6017C155.094 30.3025 155.198 30.9441 155.407 31.5265C155.62 32.1088 155.944 32.5752 156.38 32.9256C156.82 33.276 157.374 33.4512 158.042 33.4512ZM165.49 35.0137V24.1046H167.543V25.8375H167.656C167.855 25.2504 168.205 24.7888 168.707 24.4526C169.214 24.1117 169.787 23.9412 170.426 23.9412C170.559 23.9412 170.715 23.946 170.895 23.9554C171.08 23.9649 171.224 23.9767 171.328 23.9909V26.0222C171.243 25.9985 171.091 25.9725 170.874 25.9441C170.656 25.9109 170.438 25.8944 170.22 25.8944C169.718 25.8944 169.271 26.0009 168.878 26.214C168.49 26.4223 168.182 26.7135 167.955 27.0875C167.727 27.4569 167.614 27.8783 167.614 28.3517V35.0137H165.49ZM177.477 35.2338C176.402 35.2338 175.476 35.0042 174.7 34.5449C173.928 34.0809 173.332 33.4299 172.91 32.5918C172.493 31.749 172.285 30.7618 172.285 29.6301C172.285 28.5127 172.493 27.5279 172.91 26.6756C173.332 25.8233 173.919 25.1581 174.672 24.6799C175.429 24.2016 176.315 23.9625 177.328 23.9625C177.943 23.9625 178.54 24.0643 179.118 24.2679C179.695 24.4715 180.214 24.7911 180.673 25.2267C181.132 25.6623 181.494 26.2282 181.76 26.9242C182.025 27.6155 182.157 28.4559 182.157 29.4455V30.1983H173.485V28.6074H180.076C180.076 28.0487 179.963 27.5539 179.735 27.123C179.508 26.6874 179.189 26.3442 178.777 26.0932C178.369 25.8423 177.891 25.7168 177.342 25.7168C176.745 25.7168 176.225 25.8636 175.779 26.1571C175.339 26.446 174.998 26.8248 174.757 27.2935C174.52 27.7575 174.402 28.2618 174.402 28.8063V30.0492C174.402 30.7783 174.529 31.3986 174.785 31.91C175.046 32.4213 175.408 32.812 175.872 33.0819C176.336 33.347 176.878 33.4796 177.498 33.4796C177.901 33.4796 178.268 33.4228 178.599 33.3091C178.931 33.1908 179.217 33.0156 179.458 32.7836C179.7 32.5516 179.885 32.2651 180.012 31.9242L182.022 32.2864C181.861 32.8783 181.573 33.3967 181.156 33.8418C180.744 34.2821 180.225 34.6254 179.6 34.8716C178.98 35.1131 178.272 35.2338 177.477 35.2338Z" fill="#453551"/>
<path d="M28.4961 18.6699C28.4961 18.1176 28.0484 17.6699 27.4961 17.6699C26.9438 17.6699 26.4961 18.1176 26.4961 18.6699L28.4961 18.6699ZM26.789 37.0988C27.1795 37.4894 27.8127 37.4894 28.2032 37.0988L34.5672 30.7349C34.9577 30.3444 34.9577 29.7112 34.5672 29.3207C34.1766 28.9301 33.5435 28.9301 33.1529 29.3207L27.4961 34.9775L21.8392 29.3207C21.4487 28.9301 20.8155 28.9301 20.425 29.3207C20.0345 29.7112 20.0345 30.3444 20.425 30.7349L26.789 37.0988ZM26.4961 18.6699L26.4961 36.3917L28.4961 36.3917L28.4961 18.6699L26.4961 18.6699Z" fill="#F8EFFF"/>
</svg>
