<svg width="15" height="12" viewBox="0 0 15 12" fill="none" xmlns="http://www.w3.org/2000/svg">
<path d="M0.84375 5.0293C0.429536 5.0293 0.09375 5.36508 0.09375 5.7793C0.09375 6.19351 0.429536 6.5293 0.84375 6.5293L0.84375 5.0293ZM14.4302 6.30963C14.7231 6.01673 14.7231 5.54186 14.4302 5.24897L9.65722 0.475996C9.36433 0.183102 8.88946 0.183102 8.59656 0.475996C8.30367 0.768889 8.30367 1.24376 8.59656 1.53666L12.8392 5.7793L8.59656 10.0219C8.30367 10.3148 8.30367 10.7897 8.59656 11.0826C8.88946 11.3755 9.36433 11.3755 9.65722 11.0826L14.4302 6.30963ZM0.84375 6.5293L13.8999 6.5293L13.8999 5.0293L0.84375 5.0293L0.84375 6.5293Z" fill="#983FD6"/>
</svg>
