<svg width="214" height="56" viewBox="0 0 214 56" fill="none" xmlns="http://www.w3.org/2000/svg">
<circle cx="28.1914" cy="27.8457" r="27.5" fill="#983FD6"/>
<path d="M19.332 26.8457C18.7797 26.8457 18.332 27.2934 18.332 27.8457C18.332 28.398 18.7797 28.8457 19.332 28.8457V26.8457ZM37.7609 28.5528C38.1515 28.1623 38.1515 27.5291 37.7609 27.1386L31.397 20.7746C31.0065 20.3841 30.3733 20.3841 29.9828 20.7746C29.5922 21.1652 29.5922 21.7983 29.9828 22.1888L35.6396 27.8457L29.9828 33.5026C29.5922 33.8931 29.5922 34.5262 29.9828 34.9168C30.3733 35.3073 31.0065 35.3073 31.397 34.9168L37.7609 28.5528ZM19.332 28.8457H37.0538V26.8457H19.332V28.8457Z" fill="#F8EFFF"/>
<path d="M87.1332 25.3954C86.9959 24.9645 86.8112 24.5787 86.5792 24.2377C86.3519 23.8921 86.0797 23.5985 85.7624 23.3571C85.4452 23.1109 85.083 22.9238 84.6758 22.796C84.2733 22.6681 83.8306 22.6042 83.3477 22.6042C82.5285 22.6042 81.7899 22.8149 81.1317 23.2363C80.4736 23.6577 79.9528 24.2756 79.5692 25.09C79.1905 25.8997 79.0011 26.8916 79.0011 28.0659C79.0011 29.2449 79.1928 30.2415 79.5763 31.0559C79.9599 31.8703 80.4854 32.4882 81.1531 32.9096C81.8207 33.331 82.5806 33.5417 83.4329 33.5417C84.2236 33.5417 84.9125 33.3807 85.4996 33.0588C86.0915 32.7368 86.5484 32.2823 86.8704 31.6951C87.1971 31.1033 87.3604 30.4073 87.3604 29.6071L87.9286 29.7136H83.7667V27.9025H89.484V29.5574C89.484 30.7789 89.2236 31.8395 88.7028 32.7392C88.1867 33.6341 87.4717 34.3253 86.5579 34.813C85.6488 35.3007 84.6071 35.5446 83.4329 35.5446C82.1166 35.5446 80.9613 35.2415 79.967 34.6355C78.9774 34.0294 78.2056 33.17 77.6516 32.0574C77.0977 30.9399 76.8207 29.6142 76.8207 28.0801C76.8207 26.92 76.9817 25.8784 77.3036 24.9551C77.6256 24.0318 78.0778 23.2482 78.6602 22.6042C79.2473 21.9556 79.9362 21.4608 80.7269 21.1199C81.5224 20.7742 82.3912 20.6014 83.3335 20.6014C84.1194 20.6014 84.851 20.7174 85.5281 20.9494C86.2099 21.1814 86.8159 21.5105 87.3462 21.9366C87.8813 22.3627 88.324 22.8694 88.6744 23.4565C89.0247 24.0389 89.2615 24.6852 89.3846 25.3954H87.1332ZM96.8011 35.5659C95.7263 35.5659 94.8007 35.3362 94.0241 34.877C93.2524 34.4129 92.6558 33.7619 92.2344 32.9238C91.8177 32.081 91.6094 31.0938 91.6094 29.9622C91.6094 28.8448 91.8177 27.8599 92.2344 27.0076C92.6558 26.1554 93.2429 25.4901 93.9957 25.0119C94.7533 24.5337 95.6387 24.2946 96.652 24.2946C97.2675 24.2946 97.8641 24.3964 98.4418 24.6C99.0194 24.8036 99.5379 25.1232 99.9972 25.5588C100.456 25.9944 100.819 26.5602 101.084 27.2562C101.349 27.9475 101.482 28.7879 101.482 29.7775V30.5304H92.8097V28.9395H99.4006C99.4006 28.3807 99.2869 27.8859 99.0597 27.4551C98.8324 27.0195 98.5128 26.6762 98.1009 26.4252C97.6937 26.1743 97.2154 26.0488 96.6662 26.0488C96.0696 26.0488 95.5488 26.1956 95.1037 26.4892C94.6634 26.778 94.3224 27.1568 94.081 27.6255C93.8442 28.0895 93.7259 28.5938 93.7259 29.1383V30.3812C93.7259 31.1104 93.8537 31.7306 94.1094 32.242C94.3698 32.7534 94.732 33.144 95.196 33.4139C95.66 33.679 96.2022 33.8116 96.8224 33.8116C97.2249 33.8116 97.5919 33.7548 97.9233 33.6412C98.2547 33.5228 98.5412 33.3476 98.7827 33.1156C99.0241 32.8836 99.2088 32.5971 99.3366 32.2562L101.347 32.6184C101.186 33.2103 100.897 33.7288 100.48 34.1738C100.068 34.6142 99.5497 34.9574 98.9247 35.2037C98.3045 35.4451 97.5966 35.5659 96.8011 35.5659ZM108.93 24.4366V26.1412H102.971V24.4366H108.93ZM104.569 21.823H106.693V32.1426C106.693 32.5545 106.754 32.8646 106.877 33.073C107.001 33.2766 107.159 33.4163 107.353 33.492C107.552 33.563 107.768 33.5985 108 33.5985C108.17 33.5985 108.319 33.5867 108.447 33.563C108.575 33.5394 108.674 33.5204 108.745 33.5062L109.129 35.2605C109.006 35.3078 108.831 35.3552 108.603 35.4025C108.376 35.4546 108.092 35.483 107.751 35.4877C107.192 35.4972 106.672 35.3978 106.189 35.1895C105.706 34.9811 105.315 34.6592 105.017 34.2235C104.718 33.7879 104.569 33.2411 104.569 32.5829V21.823ZM116.572 39.4366V24.4366H118.646V26.2051H118.824C118.947 25.9778 119.124 25.715 119.356 25.4167C119.588 25.1184 119.91 24.858 120.322 24.6355C120.734 24.4082 121.279 24.2946 121.956 24.2946C122.836 24.2946 123.622 24.5171 124.314 24.9622C125.005 25.4073 125.547 26.0488 125.94 26.8869C126.338 27.725 126.537 28.7335 126.537 29.9125C126.537 31.0914 126.34 32.1023 125.947 32.9451C125.554 33.7832 125.014 34.4295 124.328 34.8841C123.641 35.3339 122.858 35.5588 121.977 35.5588C121.314 35.5588 120.772 35.4475 120.35 35.225C119.934 35.0024 119.607 34.742 119.37 34.4437C119.134 34.1454 118.951 33.8803 118.824 33.6483H118.696V39.4366H116.572ZM118.653 29.8912C118.653 30.6582 118.764 31.3306 118.987 31.9082C119.209 32.4859 119.531 32.938 119.953 33.2647C120.374 33.5867 120.89 33.7477 121.501 33.7477C122.136 33.7477 122.666 33.5796 123.092 33.2434C123.518 32.9025 123.84 32.4409 124.058 31.8585C124.28 31.2761 124.392 30.6203 124.392 29.8912C124.392 29.1715 124.283 28.5252 124.065 27.9522C123.852 27.3793 123.53 26.9271 123.099 26.5957C122.673 26.2643 122.14 26.0985 121.501 26.0985C120.886 26.0985 120.365 26.2572 119.939 26.5744C119.517 26.8916 119.198 27.3343 118.98 27.9025C118.762 28.4707 118.653 29.1336 118.653 29.8912ZM128.916 35.3457V24.4366H130.968V26.1696H131.082C131.281 25.5824 131.631 25.1208 132.133 24.7846C132.64 24.4437 133.213 24.2733 133.852 24.2733C133.984 24.2733 134.141 24.278 134.321 24.2875C134.505 24.2969 134.65 24.3088 134.754 24.323V26.3542C134.669 26.3306 134.517 26.3045 134.299 26.2761C134.082 26.243 133.864 26.2264 133.646 26.2264C133.144 26.2264 132.697 26.3329 132.304 26.546C131.915 26.7543 131.608 27.0455 131.38 27.4196C131.153 27.7889 131.039 28.2103 131.039 28.6838V35.3457H128.916ZM140.796 35.5659C139.773 35.5659 138.881 35.3315 138.119 34.8627C137.356 34.394 136.764 33.7382 136.343 32.8954C135.922 32.0526 135.711 31.0678 135.711 29.9409C135.711 28.8092 135.922 27.8197 136.343 26.9721C136.764 26.1246 137.356 25.4664 138.119 24.9977C138.881 24.5289 139.773 24.2946 140.796 24.2946C141.819 24.2946 142.711 24.5289 143.474 24.9977C144.236 25.4664 144.828 26.1246 145.249 26.9721C145.671 27.8197 145.881 28.8092 145.881 29.9409C145.881 31.0678 145.671 32.0526 145.249 32.8954C144.828 33.7382 144.236 34.394 143.474 34.8627C142.711 35.3315 141.819 35.5659 140.796 35.5659ZM140.803 33.7832C141.466 33.7832 142.015 33.608 142.451 33.2576C142.887 32.9073 143.209 32.4409 143.417 31.8585C143.63 31.2761 143.737 30.6345 143.737 29.9338C143.737 29.2377 143.63 28.5985 143.417 28.0162C143.209 27.429 142.887 26.9579 142.451 26.6028C142.015 26.2477 141.466 26.0701 140.803 26.0701C140.136 26.0701 139.582 26.2477 139.141 26.6028C138.706 26.9579 138.381 27.429 138.168 28.0162C137.96 28.5985 137.856 29.2377 137.856 29.9338C137.856 30.6345 137.96 31.2761 138.168 31.8585C138.381 32.4409 138.706 32.9073 139.141 33.2576C139.582 33.608 140.136 33.7832 140.803 33.7832ZM153.344 24.4366V26.1412H147.385V24.4366H153.344ZM148.983 21.823H151.107V32.1426C151.107 32.5545 151.168 32.8646 151.292 33.073C151.415 33.2766 151.573 33.4163 151.767 33.492C151.966 33.563 152.182 33.5985 152.414 33.5985C152.584 33.5985 152.733 33.5867 152.861 33.563C152.989 33.5394 153.088 33.5204 153.159 33.5062L153.543 35.2605C153.42 35.3078 153.245 35.3552 153.017 35.4025C152.79 35.4546 152.506 35.483 152.165 35.4877C151.606 35.4972 151.086 35.3978 150.603 35.1895C150.12 34.9811 149.729 34.6592 149.431 34.2235C149.132 33.7879 148.983 33.2411 148.983 32.5829V21.823ZM160.278 35.5659C159.203 35.5659 158.277 35.3362 157.501 34.877C156.729 34.4129 156.132 33.7619 155.711 32.9238C155.294 32.081 155.086 31.0938 155.086 29.9622C155.086 28.8448 155.294 27.8599 155.711 27.0076C156.132 26.1554 156.719 25.4901 157.472 25.0119C158.23 24.5337 159.115 24.2946 160.129 24.2946C160.744 24.2946 161.341 24.3964 161.918 24.6C162.496 24.8036 163.014 25.1232 163.474 25.5588C163.933 25.9944 164.295 26.5602 164.56 27.2562C164.826 27.9475 164.958 28.7879 164.958 29.7775V30.5304H156.286V28.9395H162.877C162.877 28.3807 162.763 27.8859 162.536 27.4551C162.309 27.0195 161.989 26.6762 161.577 26.4252C161.17 26.1743 160.692 26.0488 160.143 26.0488C159.546 26.0488 159.025 26.1956 158.58 26.4892C158.14 26.778 157.799 27.1568 157.558 27.6255C157.321 28.0895 157.202 28.5938 157.202 29.1383V30.3812C157.202 31.1104 157.33 31.7306 157.586 32.242C157.846 32.7534 158.209 33.144 158.673 33.4139C159.137 33.679 159.679 33.8116 160.299 33.8116C160.701 33.8116 161.068 33.7548 161.4 33.6412C161.731 33.5228 162.018 33.3476 162.259 33.1156C162.501 32.8836 162.685 32.5971 162.813 32.2562L164.823 32.6184C164.662 33.2103 164.373 33.7288 163.957 34.1738C163.545 34.6142 163.026 34.9574 162.401 35.2037C161.781 35.4451 161.073 35.5659 160.278 35.5659ZM171.909 35.5659C170.854 35.5659 169.944 35.3268 169.182 34.8485C168.425 34.3656 167.842 33.7003 167.435 32.8528C167.028 32.0053 166.824 31.0346 166.824 29.9409C166.824 28.8329 167.033 27.8552 167.449 27.0076C167.866 26.1554 168.453 25.4901 169.211 25.0119C169.968 24.5337 170.861 24.2946 171.888 24.2946C172.717 24.2946 173.455 24.4484 174.104 24.7562C174.753 25.0592 175.276 25.4854 175.674 26.0346C176.076 26.5839 176.315 27.2254 176.391 27.9593H174.324C174.211 27.448 173.95 27.0076 173.543 26.6383C173.141 26.269 172.601 26.0843 171.924 26.0843C171.332 26.0843 170.813 26.2406 170.368 26.5531C169.928 26.8609 169.585 27.3012 169.338 27.8741C169.092 28.4423 168.969 29.1146 168.969 29.8912C168.969 30.6866 169.09 31.3732 169.331 31.9508C169.573 32.5285 169.914 32.9759 170.354 33.2931C170.799 33.6104 171.322 33.769 171.924 33.769C172.326 33.769 172.691 33.6956 173.017 33.5488C173.349 33.3973 173.626 33.1819 173.848 32.9025C174.076 32.6232 174.234 32.287 174.324 31.894H176.391C176.315 32.5995 176.086 33.2292 175.702 33.7832C175.319 34.3372 174.805 34.7728 174.161 35.09C173.522 35.4073 172.771 35.5659 171.909 35.5659ZM183.754 24.4366V26.1412H177.795V24.4366H183.754ZM179.393 21.823H181.517V32.1426C181.517 32.5545 181.579 32.8646 181.702 33.073C181.825 33.2766 181.983 33.4163 182.178 33.492C182.376 33.563 182.592 33.5985 182.824 33.5985C182.994 33.5985 183.143 33.5867 183.271 33.563C183.399 33.5394 183.499 33.5204 183.57 33.5062L183.953 35.2605C183.83 35.3078 183.655 35.3552 183.428 35.4025C183.2 35.4546 182.916 35.483 182.575 35.4877C182.017 35.4972 181.496 35.3978 181.013 35.1895C180.53 34.9811 180.139 34.6592 179.841 34.2235C179.543 33.7879 179.393 33.2411 179.393 32.5829V21.823ZM186.103 35.3457V24.4366H188.227V35.3457H186.103ZM187.176 22.7534C186.806 22.7534 186.489 22.6303 186.224 22.3841C185.964 22.1331 185.833 21.8348 185.833 21.4892C185.833 21.1388 185.964 20.8405 186.224 20.5943C186.489 20.3433 186.806 20.2179 187.176 20.2179C187.545 20.2179 187.86 20.3433 188.12 20.5943C188.386 20.8405 188.518 21.1388 188.518 21.4892C188.518 21.8348 188.386 22.1331 188.12 22.3841C187.86 22.6303 187.545 22.7534 187.176 22.7534ZM195.679 35.5659C194.656 35.5659 193.764 35.3315 193.001 34.8627C192.239 34.394 191.647 33.7382 191.226 32.8954C190.804 32.0526 190.594 31.0678 190.594 29.9409C190.594 28.8092 190.804 27.8197 191.226 26.9721C191.647 26.1246 192.239 25.4664 193.001 24.9977C193.764 24.5289 194.656 24.2946 195.679 24.2946C196.702 24.2946 197.594 24.5289 198.357 24.9977C199.119 25.4664 199.711 26.1246 200.132 26.9721C200.554 27.8197 200.764 28.8092 200.764 29.9409C200.764 31.0678 200.554 32.0526 200.132 32.8954C199.711 33.7382 199.119 34.394 198.357 34.8627C197.594 35.3315 196.702 35.5659 195.679 35.5659ZM195.686 33.7832C196.349 33.7832 196.898 33.608 197.334 33.2576C197.769 32.9073 198.091 32.4409 198.3 31.8585C198.513 31.2761 198.619 30.6345 198.619 29.9338C198.619 29.2377 198.513 28.5985 198.3 28.0162C198.091 27.429 197.769 26.9579 197.334 26.6028C196.898 26.2477 196.349 26.0701 195.686 26.0701C195.018 26.0701 194.464 26.2477 194.024 26.6028C193.589 26.9579 193.264 27.429 193.051 28.0162C192.843 28.5985 192.739 29.2377 192.739 29.9338C192.739 30.6345 192.843 31.2761 193.051 31.8585C193.264 32.4409 193.589 32.9073 194.024 33.2576C194.464 33.608 195.018 33.7832 195.686 33.7832ZM205.258 28.8684V35.3457H203.135V24.4366H205.173V26.2122H205.308C205.559 25.6345 205.952 25.1705 206.487 24.8201C207.027 24.4698 207.706 24.2946 208.525 24.2946C209.269 24.2946 209.92 24.4508 210.478 24.7633C211.037 25.0711 211.47 25.5304 211.778 26.1412C212.086 26.752 212.24 27.5072 212.24 28.4068V35.3457H210.116V28.6625C210.116 27.8717 209.91 27.2538 209.498 26.8088C209.086 26.359 208.52 26.1341 207.801 26.1341C207.308 26.1341 206.87 26.2406 206.487 26.4537C206.108 26.6667 205.807 26.9792 205.585 27.3912C205.367 27.7984 205.258 28.2908 205.258 28.8684Z" fill="#453551"/>
</svg>
