<svg width="200" height="56" viewBox="0 0 200 56" fill="none" xmlns="http://www.w3.org/2000/svg">
<circle cx="27.7539" cy="27.6445" r="27.5" fill="#453551"/>
<path d="M18.8945 26.6445C18.3422 26.6445 17.8945 27.0922 17.8945 27.6445C17.8945 28.1968 18.3422 28.6445 18.8945 28.6445V26.6445ZM37.3234 28.3516C37.714 27.9611 37.714 27.3279 37.3234 26.9374L30.9595 20.5735C30.569 20.1829 29.9358 20.1829 29.5453 20.5735C29.1547 20.964 29.1547 21.5972 29.5453 21.9877L35.2021 27.6445L29.5453 33.3014C29.1547 33.6919 29.1547 34.3251 29.5453 34.7156C29.9358 35.1061 30.569 35.1061 30.9595 34.7156L37.3234 28.3516ZM18.8945 28.6445H36.6163V26.6445H18.8945V28.6445Z" fill="#F8EFFF"/>
<path d="M76.8519 35.1445V20.5991H79.0465V26.9201H86.2979V20.5991H88.4996V35.1445H86.2979V28.8022H79.0465V35.1445H76.8519ZM96.1204 35.3647C95.0977 35.3647 94.2051 35.1303 93.4428 34.6616C92.6805 34.1928 92.0887 33.5371 91.6673 32.6942C91.2459 31.8514 91.0352 30.8666 91.0352 29.7397C91.0352 28.6081 91.2459 27.6185 91.6673 26.771C92.0887 25.9234 92.6805 25.2653 93.4428 24.7965C94.2051 24.3278 95.0977 24.0934 96.1204 24.0934C97.1431 24.0934 98.0356 24.3278 98.7979 24.7965C99.5603 25.2653 100.152 25.9234 100.574 26.771C100.995 27.6185 101.206 28.6081 101.206 29.7397C101.206 30.8666 100.995 31.8514 100.574 32.6942C100.152 33.5371 99.5603 34.1928 98.7979 34.6616C98.0356 35.1303 97.1431 35.3647 96.1204 35.3647ZM96.1275 33.582C96.7904 33.582 97.3396 33.4068 97.7752 33.0565C98.2108 32.7061 98.5328 32.2397 98.7411 31.6573C98.9542 31.0749 99.0607 30.4334 99.0607 29.7326C99.0607 29.0366 98.9542 28.3974 98.7411 27.815C98.5328 27.2279 98.2108 26.7567 97.7752 26.4016C97.3396 26.0465 96.7904 25.869 96.1275 25.869C95.4599 25.869 94.9059 26.0465 94.4656 26.4016C94.0299 26.7567 93.7056 27.2279 93.4925 27.815C93.2842 28.3974 93.18 29.0366 93.18 29.7326C93.18 30.4334 93.2842 31.0749 93.4925 31.6573C93.7056 32.2397 94.0299 32.7061 94.4656 33.0565C94.9059 33.4068 95.4599 33.582 96.1275 33.582ZM105.609 35.1445L102.399 24.2354H104.593L106.731 32.2468H106.838L108.983 24.2354H111.177L113.308 32.2113H113.414L115.538 24.2354H117.733L114.529 35.1445H112.363L110.147 27.2681H109.984L107.768 35.1445H105.609ZM125.041 35.1445V24.2354H127.164V35.1445H125.041ZM126.113 22.5522C125.744 22.5522 125.427 22.4291 125.162 22.1829C124.901 21.9319 124.771 21.6336 124.771 21.288C124.771 20.9376 124.901 20.6393 125.162 20.3931C125.427 20.1422 125.744 20.0167 126.113 20.0167C126.483 20.0167 126.797 20.1422 127.058 20.3931C127.323 20.6393 127.456 20.9376 127.456 21.288C127.456 21.6336 127.323 21.9319 127.058 22.1829C126.797 22.4291 126.483 22.5522 126.113 22.5522ZM135.114 24.2354V25.94H129.155V24.2354H135.114ZM130.753 21.6218H132.876V31.9414C132.876 32.3533 132.938 32.6635 133.061 32.8718C133.184 33.0754 133.343 33.2151 133.537 33.2908C133.736 33.3619 133.951 33.3974 134.183 33.3974C134.354 33.3974 134.503 33.3855 134.631 33.3619C134.759 33.3382 134.858 33.3192 134.929 33.305L135.312 35.0593C135.189 35.1067 135.014 35.154 134.787 35.2013C134.56 35.2534 134.276 35.2818 133.935 35.2866C133.376 35.296 132.855 35.1966 132.372 34.9883C131.889 34.7799 131.499 34.458 131.2 34.0224C130.902 33.5868 130.753 33.0399 130.753 32.3817V21.6218ZM145.121 35.1445L141.911 24.2354H144.105L146.243 32.2468H146.349L148.494 24.2354H150.689L152.82 32.2113H152.926L155.05 24.2354H157.244L154.041 35.1445H151.875L149.659 27.2681H149.496L147.28 35.1445H145.121ZM163.523 35.3647C162.5 35.3647 161.607 35.1303 160.845 34.6616C160.083 34.1928 159.491 33.5371 159.07 32.6942C158.648 31.8514 158.438 30.8666 158.438 29.7397C158.438 28.6081 158.648 27.6185 159.07 26.771C159.491 25.9234 160.083 25.2653 160.845 24.7965C161.607 24.3278 162.5 24.0934 163.523 24.0934C164.545 24.0934 165.438 24.3278 166.2 24.7965C166.963 25.2653 167.554 25.9234 167.976 26.771C168.397 27.6185 168.608 28.6081 168.608 29.7397C168.608 30.8666 168.397 31.8514 167.976 32.6942C167.554 33.5371 166.963 34.1928 166.2 34.6616C165.438 35.1303 164.545 35.3647 163.523 35.3647ZM163.53 33.582C164.193 33.582 164.742 33.4068 165.178 33.0565C165.613 32.7061 165.935 32.2397 166.143 31.6573C166.357 31.0749 166.463 30.4334 166.463 29.7326C166.463 29.0366 166.357 28.3974 166.143 27.815C165.935 27.2279 165.613 26.7567 165.178 26.4016C164.742 26.0465 164.193 25.869 163.53 25.869C162.862 25.869 162.308 26.0465 161.868 26.4016C161.432 26.7567 161.108 27.2279 160.895 27.815C160.687 28.3974 160.582 29.0366 160.582 29.7326C160.582 30.4334 160.687 31.0749 160.895 31.6573C161.108 32.2397 161.432 32.7061 161.868 33.0565C162.308 33.4068 162.862 33.582 163.53 33.582ZM170.978 35.1445V24.2354H173.031V25.9684H173.145C173.343 25.3813 173.694 24.9196 174.196 24.5835C174.702 24.2425 175.275 24.0721 175.914 24.0721C176.047 24.0721 176.203 24.0768 176.383 24.0863C176.568 24.0958 176.712 24.1076 176.816 24.1218V26.1531C176.731 26.1294 176.58 26.1033 176.362 26.0749C176.144 26.0418 175.926 26.0252 175.708 26.0252C175.207 26.0252 174.759 26.1317 174.366 26.3448C173.978 26.5531 173.67 26.8443 173.443 27.2184C173.216 27.5877 173.102 28.0091 173.102 28.4826V35.1445H170.978ZM180.607 31.4442L180.593 28.8519H180.962L185.309 24.2354H187.852L182.894 29.4911H182.56L180.607 31.4442ZM178.654 35.1445V20.5991H180.778V35.1445H178.654ZM185.543 35.1445L181.637 29.9599L183.1 28.4755L188.15 35.1445H185.543ZM197.962 26.8988L196.037 27.2397C195.956 26.9935 195.829 26.7591 195.653 26.5366C195.483 26.314 195.251 26.1317 194.957 25.9897C194.664 25.8477 194.297 25.7766 193.857 25.7766C193.255 25.7766 192.753 25.9116 192.351 26.1815C191.948 26.4466 191.747 26.7899 191.747 27.2113C191.747 27.5759 191.882 27.8694 192.152 28.092C192.422 28.3145 192.857 28.4968 193.459 28.6388L195.192 29.0366C196.196 29.2686 196.944 29.6261 197.436 30.109C197.929 30.592 198.175 31.2193 198.175 31.9911C198.175 32.6445 197.985 33.2269 197.607 33.7383C197.232 34.2449 196.709 34.6426 196.037 34.9315C195.369 35.2203 194.595 35.3647 193.714 35.3647C192.493 35.3647 191.496 35.1043 190.724 34.5835C189.953 34.0579 189.479 33.3121 189.304 32.3462L191.357 32.0337C191.484 32.5688 191.747 32.9736 192.145 33.2482C192.543 33.5181 193.061 33.6531 193.7 33.6531C194.396 33.6531 194.953 33.5086 195.369 33.2198C195.786 32.9263 195.994 32.5688 195.994 32.1474C195.994 31.8065 195.866 31.52 195.611 31.288C195.36 31.056 194.974 30.8808 194.453 30.7624L192.607 30.3576C191.589 30.1256 190.836 29.7563 190.348 29.2496C189.865 28.743 189.624 28.1014 189.624 27.3249C189.624 26.681 189.804 26.1175 190.163 25.6346C190.523 25.1516 191.02 24.7752 191.655 24.5053C192.289 24.2307 193.016 24.0934 193.835 24.0934C195.014 24.0934 195.942 24.3491 196.619 24.8604C197.296 25.3671 197.744 26.0465 197.962 26.8988Z" fill="#453551"/>
</svg>
