<svg width="101" height="85" viewBox="0 0 101 85" fill="none" xmlns="http://www.w3.org/2000/svg">
<path d="M23.8398 46.1719C26.5742 45.4883 29.1947 45.6022 31.7012 46.5137C34.2077 47.1973 36.3724 48.4505 38.1953 50.2734C40.2461 52.0964 41.8411 54.2611 42.9805 56.7676C44.3477 59.2741 45.0312 62.0085 45.0312 64.9707C45.0312 70.6673 42.9805 75.4525 38.8789 79.3262C34.7773 82.972 29.7643 84.7949 23.8398 84.7949C15.8646 84.7949 9.9401 81.9466 6.06641 76.25C2.19271 70.3255 0.255859 62.806 0.255859 53.6914C0.255859 41.3867 3.10417 30.6771 8.80078 21.5625C14.7253 12.2201 23.8398 5.27018 36.1445 0.712891L40.9297 7.20703C32.043 11.3086 25.4349 16.4355 21.1055 22.5879C16.776 28.7402 14.6113 35.5762 14.6113 43.0957C14.6113 45.6022 15.0671 47.0833 15.9785 47.5391C17.1178 47.9948 18.3711 47.9948 19.7383 47.5391L23.8398 46.1719ZM79.5117 46.1719C82.2461 45.4883 84.8665 45.6022 87.373 46.5137C89.8796 47.1973 92.0443 48.4505 93.8672 50.2734C95.918 52.0964 97.513 54.2611 98.6523 56.7676C100.02 59.2741 100.703 62.0085 100.703 64.9707C100.703 70.6673 98.6523 75.4525 94.5508 79.3262C90.4492 82.972 85.4362 84.7949 79.5117 84.7949C71.5365 84.7949 65.612 81.9466 61.7383 76.25C57.8646 70.3255 55.9277 62.806 55.9277 53.6914C55.9277 41.3867 58.776 30.6771 64.4727 21.5625C70.3971 12.2201 79.5117 5.27018 91.8164 0.712891L96.6016 7.20703C87.7148 11.3086 81.1068 16.4355 76.7773 22.5879C72.4479 28.7402 70.2832 35.5762 70.2832 43.0957C70.2832 45.6022 70.7389 47.0833 71.6504 47.5391C72.7897 47.9948 74.043 47.9948 75.4102 47.5391L79.5117 46.1719Z" fill="#EED7FF" fill-opacity="0.4"/>
</svg>
