<svg width="101" height="101" viewBox="0 0 101 101" fill="none" xmlns="http://www.w3.org/2000/svg">
<path d="M51.0524 66.2031C60.8534 66.2031 68.894 58.781 69.9407 49.2655C69.227 44.2222 64.8974 40.416 59.7591 40.416C57.9511 40.416 56.1908 40.8918 54.6683 41.7482C54.4304 41.8909 54.3828 42.224 54.5255 42.4619C55.8577 44.2698 56.952 46.6963 56.952 49.9791C56.952 53.1668 54.8586 56.5924 51.0524 56.5924C47.151 56.5924 45.1527 53.262 45.1527 49.9791C45.1527 46.6963 46.2946 44.2698 47.5792 42.4619C47.7695 42.224 47.6744 41.8909 47.4365 41.7482C45.914 40.8918 44.1536 40.416 42.3457 40.416C37.2073 40.416 32.8777 44.2222 32.1641 49.2655C33.2108 58.7334 41.2514 66.2031 51.0524 66.2031Z" fill="#983FD6"/>
<path d="M51.0583 52.2643C52.3429 52.2643 52.6284 50.5991 52.6284 49.9806C52.6284 48.125 52.1526 46.6026 51.0583 45.0801C49.9641 46.6026 49.4883 48.125 49.4883 49.9806C49.4883 50.0757 49.4883 52.2643 51.0583 52.2643Z" fill="#983FD6"/>
<path d="M74.2644 44.4139C74.7878 47.3161 75.0257 50.2659 75.0257 53.2633C75.0257 73.8644 62.8934 91.6584 45.3848 99.9369C45.0518 100.127 45.0994 100.651 45.48 100.651C46.9549 100.793 48.4774 100.841 49.9999 100.841C77.5949 100.841 100.004 78.4318 100.004 50.8368C100.004 22.6233 76.5957 -0.166334 48.1443 0.880373C22.2145 1.83192 1.0901 22.9088 0.0433928 48.8386C-0.479961 62.2079 4.23022 74.4829 12.3184 83.713C12.5563 83.9508 12.9845 83.9033 13.0796 83.5702L27.9714 42.8914C28.019 42.7962 28.0666 42.6535 28.1142 42.5583C30.2552 31.901 39.7231 23.8128 50.999 23.8128C61.6088 23.8128 70.5534 30.9494 73.408 40.6552C73.4556 40.7504 73.5032 40.8931 73.5032 40.9883C73.5508 41.2262 73.6459 41.5116 73.6935 41.7971C73.7887 42.1777 73.8362 42.5108 73.9314 42.8914C73.979 43.0341 73.979 43.1768 74.0265 43.3672L74.2644 44.4139Z" fill="#983FD6"/>
<path d="M67.4148 38.2283C67.5576 38.3235 67.7003 38.1807 67.6527 38.038C64.4175 32.186 58.1848 28.1895 51.0482 28.1895C43.9115 28.1895 37.6789 32.1384 34.4436 37.9904C34.3484 38.1332 34.5387 38.2759 34.6815 38.2283C36.9176 36.8486 39.5344 36.0398 42.3415 36.0398C45.3388 36.0398 48.1935 36.9437 50.5724 38.5614C50.8578 38.7517 51.2385 38.7517 51.5239 38.5614C53.9504 36.8962 56.7575 36.0398 59.7549 36.0398C62.5619 36.0398 65.1787 36.8486 67.4148 38.2283Z" fill="#983FD6"/>
<path d="M69.2705 61.7332C65.8449 66.0152 60.8968 69.0602 55.2826 70.1069C54.9496 70.1545 54.7117 70.3924 54.569 70.7254C50.9055 82.3343 43.1028 92.2781 32.9212 98.7486C32.5406 98.9865 32.7784 99.5574 33.2066 99.4623C51.7619 95.5609 66.3206 80.7167 69.8414 62.0187C69.889 61.6857 69.4608 61.4954 69.2705 61.7332Z" fill="#983FD6"/>
<path d="M49.9008 71.0558C49.6629 71.7219 49.425 72.3404 49.1395 73.0065C49.0444 73.2919 48.9016 73.5298 48.7589 73.8153C48.521 74.3386 48.2831 74.9096 48.0452 75.4329C47.9025 75.766 47.7122 76.0514 47.5695 76.3845C47.3316 76.8602 47.0937 77.336 46.8558 77.8118C46.6655 78.1448 46.4752 78.4779 46.2849 78.8109C46.047 79.2391 45.7615 79.7149 45.5236 80.0955C45.3333 80.4286 45.0954 80.7616 44.9051 81.0946C44.6196 81.5228 44.3818 81.9035 44.0963 82.3317C43.8584 82.6647 43.6205 82.9502 43.3826 83.2832C43.0972 83.6638 42.8117 84.0445 42.5262 84.4251C42.2883 84.7581 42.0029 85.0436 41.765 85.329C41.4795 85.7097 41.1465 86.0903 40.8134 86.4233C40.5756 86.7088 40.2901 87.0418 40.0046 87.3273C39.6716 87.6604 39.3861 88.041 39.0055 88.374C38.72 88.6595 38.4346 88.9449 38.1015 89.2304C37.7685 89.5635 37.4354 89.8965 37.0548 90.182C36.7693 90.4674 36.4363 90.7529 36.1508 90.9908C35.7702 91.3238 35.4372 91.6093 35.0565 91.8948C34.7235 92.1326 34.3905 92.4181 34.0574 92.656C33.6768 92.9415 33.2962 93.2269 32.9156 93.5124C32.5825 93.7503 32.2495 93.9882 31.9164 94.2261C31.5358 94.5115 31.1552 94.7494 30.727 94.9873C30.3939 95.2252 30.0133 95.4155 29.6803 95.6534C29.2521 95.8913 28.8715 96.1292 28.4433 96.3671C28.0626 96.5574 27.7296 96.7952 27.349 96.9855C26.9208 97.2234 26.4926 97.4137 26.0644 97.6516C25.6838 97.8419 25.3031 98.0323 24.9225 98.175C24.4943 98.3653 24.0186 98.5556 23.5904 98.7459C23.2097 98.8887 22.8291 99.079 22.4485 99.2217C22.2106 99.3169 21.9727 99.412 21.7348 99.4596C20.4502 99.8878 19.0705 100.126 17.7383 100.078H17.6907C17.548 100.078 17.4053 100.078 17.2625 100.078C15.1691 99.8402 13.5039 98.0798 13.5039 95.8913C13.5039 95.4631 13.5515 95.0349 13.6942 94.6543L28.3005 54.8318C28.4433 54.4988 28.919 54.4988 29.0142 54.8318C32.0116 63.4909 40.0046 69.8663 49.5201 70.4848C49.8056 70.4848 49.9959 70.7703 49.9008 71.0558Z" fill="#983FD6"/>
</svg>
