<svg width="166" height="51" viewBox="0 0 166 51" fill="none" xmlns="http://www.w3.org/2000/svg">
<path d="M25.5262 33.4629C30.4267 33.4629 34.447 29.7518 34.9703 24.9941C34.6135 22.4724 32.4487 20.5693 29.8795 20.5693C28.9756 20.5693 28.0954 20.8072 27.3341 21.2354C27.2152 21.3068 27.1914 21.4733 27.2628 21.5923C27.9289 22.4962 28.476 23.7095 28.476 25.3509C28.476 26.9447 27.4293 28.6575 25.5262 28.6575C23.5755 28.6575 22.5764 26.9923 22.5764 25.3509C22.5764 23.7095 23.1473 22.4962 23.7896 21.5923C23.8848 21.4733 23.8372 21.3068 23.7182 21.2354C22.957 20.8072 22.0768 20.5693 21.1728 20.5693C18.6036 20.5693 16.4389 22.4724 16.082 24.9941C16.6054 29.728 20.6257 33.4629 25.5262 33.4629Z" fill="#983FD6"/>
<path d="M25.5311 26.4935C26.1734 26.4935 26.3162 25.6609 26.3162 25.3516C26.3162 24.4239 26.0783 23.6626 25.5311 22.9014C24.984 23.6626 24.7461 24.4239 24.7461 25.3516C24.7461 25.3992 24.7461 26.4935 25.5311 26.4935Z" fill="#983FD6"/>
<path d="M37.1342 22.5683C37.3958 24.0194 37.5148 25.4943 37.5148 26.993C37.5148 37.2935 31.4486 46.1905 22.6944 50.3298C22.5278 50.4249 22.5516 50.6866 22.7419 50.6866C23.4794 50.758 24.2406 50.7818 25.0019 50.7818C38.7994 50.7818 50.0039 39.5773 50.0039 25.7797C50.0039 11.673 38.2998 0.278161 24.0741 0.801515C11.1092 1.27729 0.547003 11.8157 0.0236495 24.7806C-0.238027 31.4653 2.11706 37.6028 6.16116 42.2178C6.2801 42.3368 6.4942 42.313 6.54178 42.1464L13.9877 21.807C14.0115 21.7594 14.0352 21.6881 14.059 21.6405C15.1295 16.3118 19.8635 12.2677 25.5014 12.2677C30.8063 12.2677 35.2786 15.836 36.706 20.6889C36.7298 20.7365 36.7536 20.8079 36.7536 20.8555C36.7773 20.9744 36.8249 21.1171 36.8487 21.2599C36.8963 21.4502 36.9201 21.6167 36.9676 21.807C36.9914 21.8784 36.9914 21.9498 37.0152 22.0449L37.1342 22.5683Z" fill="#983FD6"/>
<path d="M33.7094 19.4755C33.7807 19.5231 33.8521 19.4517 33.8283 19.3803C32.2107 16.4543 29.0944 14.4561 25.526 14.4561C21.9577 14.4561 18.8414 16.4305 17.2237 19.3565C17.1762 19.4279 17.2713 19.4993 17.3427 19.4755C18.4608 18.7856 19.7691 18.3812 21.1727 18.3812C22.6714 18.3812 24.0987 18.8332 25.2881 19.642C25.4309 19.7372 25.6212 19.7372 25.7639 19.642C26.9771 18.8094 28.3807 18.3812 29.8794 18.3812C31.2829 18.3812 32.5913 18.7856 33.7094 19.4755Z" fill="#983FD6"/>
<path d="M34.6372 31.228C32.9244 33.3689 30.4504 34.8914 27.6433 35.4148C27.4768 35.4386 27.3578 35.5575 27.2864 35.724C25.4547 41.5285 21.5533 46.5004 16.4625 49.7356C16.2722 49.8546 16.3912 50.14 16.6053 50.0925C25.8829 48.1418 33.1623 40.7197 34.9226 31.3707C34.9464 31.2042 34.7323 31.109 34.6372 31.228Z" fill="#983FD6"/>
<path d="M24.9523 35.8902C24.8334 36.2232 24.7144 36.5325 24.5717 36.8655C24.5241 37.0083 24.4528 37.1272 24.3814 37.2699C24.2625 37.5316 24.1435 37.8171 24.0246 38.0788C23.9532 38.2453 23.858 38.388 23.7867 38.5545C23.6677 38.7924 23.5488 39.0303 23.4298 39.2682C23.3347 39.4347 23.2395 39.6012 23.1444 39.7678C23.0254 39.9819 22.8827 40.2197 22.7638 40.4101C22.6686 40.5766 22.5497 40.7431 22.4545 40.9096C22.3118 41.1237 22.1928 41.314 22.0501 41.5281C21.9312 41.6947 21.8122 41.8374 21.6933 42.0039C21.5505 42.1942 21.4078 42.3845 21.2651 42.5748C21.1461 42.7414 21.0034 42.8841 20.8844 43.0268C20.7417 43.2171 20.5752 43.4075 20.4087 43.574C20.2897 43.7167 20.147 43.8832 20.0043 44.026C19.8377 44.1925 19.695 44.3828 19.5047 44.5493C19.362 44.692 19.2192 44.8348 19.0527 44.9775C18.8862 45.144 18.7197 45.3106 18.5294 45.4533C18.3866 45.596 18.2201 45.7387 18.0774 45.8577C17.8871 46.0242 17.7205 46.167 17.5302 46.3097C17.3637 46.4286 17.1972 46.5714 17.0307 46.6903C16.8404 46.833 16.65 46.9758 16.4597 47.1185C16.2932 47.2374 16.1267 47.3564 15.9602 47.4753C15.7699 47.6181 15.5795 47.737 15.3654 47.856C15.1989 47.9749 15.0086 48.0701 14.8421 48.189C14.628 48.3079 14.4377 48.4269 14.2236 48.5458C14.0333 48.641 13.8668 48.7599 13.6764 48.8551C13.4623 48.974 13.2482 49.0692 13.0341 49.1881C12.8438 49.2833 12.6535 49.3784 12.4632 49.4498C12.2491 49.545 12.0112 49.6401 11.7971 49.7353C11.6068 49.8066 11.4165 49.9018 11.2262 49.9732C11.1073 50.0207 10.9883 50.0683 10.8694 50.0921C10.2271 50.3062 9.53719 50.4251 8.87111 50.4014H8.84732C8.77595 50.4014 8.70459 50.4014 8.63322 50.4014C7.58651 50.2824 6.75391 49.4022 6.75391 48.3079C6.75391 48.0938 6.77769 47.8797 6.84906 47.6894L14.1522 27.7782C14.2236 27.6117 14.4615 27.6117 14.5091 27.7782C16.0077 32.1078 20.0043 35.2955 24.762 35.6047C24.9048 35.6047 24.9999 35.7475 24.9523 35.8902Z" fill="#983FD6"/>
<path d="M83.5495 20.8934C82.1028 20.051 80.4548 19.6299 78.6786 19.6299C76.9023 19.6299 75.2543 20.051 73.8077 20.8934C72.361 21.7357 71.1891 22.8894 70.3651 24.3543C69.5227 25.8192 69.1016 27.4673 69.1016 29.2435C69.1016 31.0197 69.5044 32.6678 70.3284 34.1144C71.1342 35.561 72.2695 36.733 73.6795 37.557C75.0895 38.3993 76.6826 38.8205 78.4222 38.8205C79.9054 38.8205 81.2971 38.5092 82.524 37.8683C83.6227 37.3189 84.5566 36.5682 85.3074 35.6343V37.1908C85.3074 37.6119 85.4539 37.9782 85.7285 38.2345C86.0032 38.5092 86.3695 38.6374 86.7906 38.6374C87.2118 38.6374 87.578 38.4909 87.8527 38.2162C88.1274 37.9415 88.2739 37.5936 88.2739 37.1908V29.2252C88.2739 27.449 87.8527 25.8009 87.0104 24.336C86.168 22.8894 84.9961 21.7357 83.5495 20.8934ZM85.344 29.2618C85.344 30.5619 85.051 31.7522 84.465 32.796C83.8791 33.8397 83.0734 34.6638 82.0662 35.268C81.0591 35.854 79.9054 36.1653 78.6602 36.1653C77.4151 36.1653 76.2614 35.8723 75.236 35.268C74.2105 34.6821 73.4048 33.8397 72.8188 32.796C72.2329 31.7522 71.9399 30.5619 71.9399 29.2618C71.9399 27.9617 72.2329 26.7714 72.8188 25.7277C73.4048 24.6839 74.2105 23.8416 75.236 23.2373C76.2614 22.633 77.4151 22.3217 78.6602 22.3217C79.9054 22.3217 81.0591 22.633 82.0662 23.2373C83.0734 23.8416 83.8791 24.6839 84.465 25.7277C85.051 26.7714 85.344 27.9617 85.344 29.2618Z" fill="#453551"/>
<path d="M101.9 36.3112C101.644 36.0365 101.314 35.89 100.893 35.89H99.9777C98.9522 35.89 98.1465 35.5421 97.4873 34.8462C96.8463 34.1504 96.5167 33.2348 96.5167 32.1178V23.2366H100.179C100.582 23.2366 100.912 23.1085 101.168 22.8704C101.406 22.6324 101.534 22.3211 101.534 21.9548C101.534 21.5703 101.406 21.259 101.168 21.0026C100.93 20.7646 100.6 20.6364 100.179 20.6364H96.5167V15.5457C96.5167 15.1246 96.3703 14.7583 96.0956 14.4837C95.8209 14.209 95.4547 14.0625 95.0335 14.0625C94.6123 14.0625 94.2461 14.209 93.9897 14.4837C93.7151 14.7583 93.5869 15.1246 93.5869 15.5457V20.6364H91.5543C91.1514 20.6364 90.8218 20.7646 90.5655 21.0026C90.3274 21.2407 90.1992 21.5703 90.1992 21.9548C90.1992 22.3211 90.3274 22.614 90.5655 22.8704C90.8035 23.1085 91.1331 23.2366 91.5543 23.2366H93.5869V32.1178C93.5869 33.3813 93.8616 34.5349 94.4109 35.5421C94.9603 36.5492 95.711 37.3549 96.6816 37.9409C97.6521 38.5269 98.7691 38.8382 99.9777 38.8382H100.692C101.131 38.8382 101.516 38.6917 101.827 38.417C102.138 38.1423 102.285 37.7944 102.285 37.3732C102.285 36.9338 102.157 36.5858 101.9 36.3112Z" fill="#453551"/>
<path d="M115.08 36.3112C114.824 36.0365 114.494 35.89 114.073 35.89H113.157C112.15 35.89 111.308 35.5421 110.667 34.8462C110.026 34.1504 109.696 33.2348 109.696 32.1178V23.2366H113.359C113.762 23.2366 114.091 23.1085 114.348 22.8704C114.586 22.6324 114.714 22.3211 114.714 21.9548C114.714 21.5703 114.586 21.259 114.348 21.0026C114.11 20.7646 113.78 20.6364 113.359 20.6364H109.696V15.5457C109.696 15.1246 109.55 14.7583 109.275 14.4837C109.001 14.209 108.634 14.0625 108.213 14.0625C107.792 14.0625 107.426 14.209 107.169 14.4837C106.895 14.7583 106.767 15.1246 106.767 15.5457V20.6364H104.734C104.331 20.6364 104.002 20.7646 103.745 21.0026C103.507 21.2407 103.379 21.5703 103.379 21.9548C103.379 22.3211 103.507 22.614 103.745 22.8704C103.983 23.1085 104.313 23.2366 104.734 23.2366H106.767V32.1178C106.767 33.3813 107.041 34.5349 107.591 35.5421C108.14 36.5492 108.891 37.3549 109.861 37.9409C110.832 38.5269 111.949 38.8382 113.157 38.8382H113.871C114.311 38.8382 114.696 38.6917 115.007 38.417C115.318 38.1423 115.465 37.7944 115.465 37.3732C115.465 36.9338 115.336 36.5858 115.08 36.3112Z" fill="#453551"/>
<path d="M120.518 19.9404C120.097 19.9404 119.731 20.0869 119.456 20.3616C119.182 20.6363 119.035 21.0025 119.035 21.4237V37.3182C119.035 37.7394 119.182 38.1056 119.456 38.3803C119.731 38.6549 120.097 38.8014 120.518 38.8014C120.94 38.8014 121.306 38.6549 121.562 38.3803C121.837 38.1056 121.965 37.7394 121.965 37.3182V21.4237C121.965 21.0025 121.837 20.6363 121.562 20.3616C121.306 20.0869 120.94 19.9404 120.518 19.9404Z" fill="#453551"/>
<path d="M120.518 12.7275C119.951 12.7275 119.474 12.9107 119.09 13.2769C118.687 13.6431 118.504 14.1375 118.504 14.7235C118.504 15.2912 118.687 15.7673 119.072 16.1518C119.456 16.5364 119.932 16.7378 120.5 16.7378C121.068 16.7378 121.544 16.5364 121.946 16.1518C122.331 15.7673 122.532 15.2729 122.532 14.7052C122.532 14.1192 122.331 13.6248 121.946 13.2586C121.525 12.9107 121.049 12.7275 120.518 12.7275Z" fill="#453551"/>
<path d="M139.569 20.784C138.269 20.0882 136.786 19.7402 135.174 19.7402C133.911 19.7402 132.721 19.9783 131.659 20.4727C130.706 20.8939 129.882 21.4615 129.168 22.1757V21.4432C129.168 21.022 129.04 20.6558 128.765 20.3811C128.491 20.1065 128.143 19.96 127.722 19.96C127.3 19.96 126.934 20.1065 126.659 20.3811C126.385 20.6558 126.238 21.022 126.238 21.4432V37.3744C126.238 37.7955 126.385 38.1618 126.659 38.4181C126.934 38.6928 127.3 38.821 127.722 38.821C128.143 38.821 128.509 38.6928 128.765 38.4181C129.04 38.1435 129.168 37.7955 129.168 37.3744V27.3396C129.168 26.4423 129.425 25.6366 129.919 24.9041C130.413 24.1717 131.109 23.604 131.97 23.1828C132.83 22.7617 133.819 22.5602 134.9 22.5602C136.658 22.5602 138.104 23.073 139.185 24.0984C140.265 25.1055 140.814 26.6254 140.814 28.5665V37.3744C140.814 37.7772 140.961 38.1251 141.236 38.3998C141.51 38.6745 141.876 38.821 142.298 38.821C142.7 38.821 143.048 38.6745 143.323 38.3998C143.598 38.1251 143.744 37.7772 143.744 37.3744V28.5665C143.744 26.7353 143.378 25.1422 142.646 23.8237C141.895 22.487 140.869 21.4615 139.569 20.784Z" fill="#453551"/>
<path d="M164.473 24.3357C163.63 22.8708 162.477 21.6989 161.03 20.8748C159.583 20.0325 157.935 19.6113 156.159 19.6113C154.383 19.6113 152.735 20.0325 151.288 20.8748C149.842 21.7172 148.67 22.8708 147.846 24.3357C147.003 25.8007 146.582 27.4487 146.582 29.2249C146.582 31.0012 146.985 32.6492 147.809 34.0959C148.615 35.5425 149.75 36.7144 151.16 37.5384C152.57 38.3808 154.163 38.802 155.903 38.802C157.386 38.802 158.778 38.4907 160.004 37.8497C161.103 37.3004 162.037 36.5496 162.788 35.6157V37.1722C162.788 37.5934 162.934 37.9596 163.209 38.216C163.484 38.4907 163.85 38.6188 164.271 38.6188C164.692 38.6188 165.058 38.4723 165.333 38.1977C165.608 37.923 165.754 37.5751 165.754 37.1722V29.2066C165.736 27.4487 165.315 25.8007 164.473 24.3357ZM162.824 29.2249C162.824 30.5251 162.531 31.7153 161.946 32.7591C161.36 33.8029 160.554 34.6269 159.547 35.2312C158.54 35.8171 157.386 36.1284 156.141 36.1284C154.896 36.1284 153.742 35.8355 152.716 35.2312C151.691 34.6452 150.885 33.8029 150.299 32.7591C149.713 31.7153 149.42 30.5251 149.42 29.2249C149.42 27.9248 149.713 26.7346 150.299 25.6908C150.885 24.647 151.691 23.8047 152.716 23.2004C153.742 22.5961 154.896 22.2848 156.141 22.2848C157.386 22.2848 158.54 22.5961 159.547 23.2004C160.554 23.8047 161.36 24.647 161.946 25.6908C162.531 26.7346 162.824 27.9248 162.824 29.2249Z" fill="#453551"/>
</svg>
