<svg width="28" height="32" viewBox="0 0 28 32" fill="none" xmlns="http://www.w3.org/2000/svg">
<path d="M14.7077 0.0270014C16.4651 0 18.2125 0.0160009 19.9579 0C20.0637 2.04111 20.8029 4.12022 22.3076 5.5633C23.8093 7.04238 25.9333 7.71941 28 7.94842V13.3177C26.0633 13.2547 24.1174 12.8547 22.36 12.0266C21.5945 11.6826 20.8815 11.2396 20.1835 10.7866C20.1745 14.6828 20.1996 18.574 20.1583 22.4542C20.0536 24.3183 19.4342 26.1734 18.3425 27.7095C16.586 30.2666 13.5373 31.9337 10.4061 31.9857C8.48549 32.0947 6.56687 31.5747 4.93025 30.6166C2.218 29.0286 0.309456 26.1214 0.0314826 23.0012C-0.00074618 22.3342 -0.0118248 21.6682 0.0153682 21.0171C0.257084 18.48 1.52106 16.0529 3.48298 14.4018C5.70677 12.4787 8.82188 11.5626 11.7386 12.1046C11.7658 14.0798 11.6862 16.0529 11.6862 18.028C10.3537 17.5999 8.7967 17.7199 7.63243 18.523C6.7824 19.07 6.13682 19.9081 5.80043 20.8561C5.52246 21.5321 5.60202 22.2832 5.61814 23.0012C5.9374 25.1893 8.05644 27.0284 10.3185 26.8294C11.8181 26.8134 13.2553 25.9494 14.0369 24.6843C14.2897 24.2413 14.5727 23.7883 14.5878 23.2672C14.7197 20.8821 14.6674 18.507 14.6835 16.1219C14.6946 10.7466 14.6674 5.38629 14.7087 0.0280015L14.7077 0.0270014Z" fill="#F8EFFF"/>
</svg>
