<svg width="71" height="71" viewBox="0 0 71 71" fill="none" xmlns="http://www.w3.org/2000/svg">
<path d="M36.4249 46.0968C43.2856 46.0968 48.9141 40.9014 49.6467 34.2405C49.1472 30.7102 46.1165 28.0459 42.5196 28.0459C41.2541 28.0459 40.0218 28.3789 38.9561 28.9784C38.7895 29.0783 38.7562 29.3115 38.8562 29.478C39.7887 30.7435 40.5547 32.4421 40.5547 34.7401C40.5547 36.9715 39.0893 39.3694 36.4249 39.3694C33.694 39.3694 32.2952 37.0381 32.2952 34.7401C32.2952 32.4421 33.0945 30.7435 33.9937 29.478C34.1269 29.3115 34.0603 29.0783 33.8938 28.9784C32.8281 28.3789 31.5958 28.0459 30.3302 28.0459C26.7334 28.0459 23.7027 30.7102 23.2031 34.2405C23.9358 40.8681 29.5642 46.0968 36.4249 46.0968Z" fill="#F8EFFF"/>
<path d="M36.4233 36.3395C37.3225 36.3395 37.5223 35.1738 37.5223 34.7409C37.5223 33.442 37.1893 32.3763 36.4233 31.3105C35.6573 32.3763 35.3242 33.442 35.3242 34.7409C35.3242 34.8075 35.3242 36.3395 36.4233 36.3395Z" fill="#F8EFFF"/>
<path d="M52.6777 30.8444C53.044 32.876 53.2105 34.9408 53.2105 37.039C53.2105 51.4598 44.7179 63.9156 32.462 69.7105C32.2288 69.8437 32.2621 70.2101 32.5286 70.2101C33.561 70.31 34.6267 70.3433 35.6925 70.3433C55.009 70.3433 70.6953 54.657 70.6953 35.3405C70.6953 15.591 54.3096 -0.361746 34.3936 0.370949C16.2428 1.03703 1.45565 15.7908 0.722953 33.9417C0.356606 43.3002 3.65373 51.8927 9.31547 58.3538C9.48199 58.5203 9.78172 58.487 9.84833 58.2538L20.2726 29.7787C20.3059 29.712 20.3392 29.6121 20.3725 29.5455C21.8712 22.0854 28.4987 16.4236 36.3919 16.4236C43.8187 16.4236 50.0799 21.4193 52.0782 28.2134C52.1115 28.28 52.1448 28.3799 52.1448 28.4465C52.1781 28.613 52.2447 28.8128 52.278 29.0127C52.3446 29.2791 52.3779 29.5122 52.4445 29.7787C52.4779 29.8786 52.4778 29.9785 52.5112 30.1117L52.6777 30.8444Z" fill="#F8EFFF"/>
<path d="M47.883 26.5145C47.9829 26.5811 48.0828 26.4812 48.0495 26.3813C45.7848 22.2849 41.4219 19.4873 36.4263 19.4873C31.4306 19.4873 27.0678 22.2516 24.8031 26.348C24.7365 26.4479 24.8697 26.5478 24.9696 26.5145C26.5349 25.5487 28.3666 24.9825 30.3316 24.9825C32.4298 24.9825 34.428 25.6153 36.0932 26.7476C36.2931 26.8809 36.5595 26.8809 36.7593 26.7476C38.4579 25.582 40.4228 24.9825 42.521 24.9825C44.4859 24.9825 46.3177 25.5487 47.883 26.5145Z" fill="#F8EFFF"/>
<path d="M49.1835 42.967C46.7856 45.9644 43.3219 48.0958 39.392 48.8285C39.1589 48.8618 38.9923 49.0284 38.8924 49.2615C36.328 57.3877 30.8661 64.3484 23.739 68.8777C23.4725 69.0443 23.6391 69.4439 23.9388 69.3773C36.9275 66.6464 47.1186 56.2554 49.5831 43.1668C49.6164 42.9337 49.3167 42.8005 49.1835 42.967Z" fill="#F8EFFF"/>
<path d="M35.6223 49.4955C35.4558 49.9617 35.2893 50.3947 35.0895 50.861C35.0229 51.0608 34.9229 51.2273 34.823 51.4271C34.6565 51.7935 34.49 52.1931 34.3235 52.5595C34.2235 52.7926 34.0903 52.9924 33.9904 53.2256C33.8239 53.5586 33.6574 53.8917 33.4909 54.2247C33.3576 54.4578 33.2244 54.691 33.0912 54.9241C32.9247 55.2238 32.7249 55.5569 32.5583 55.8233C32.4251 56.0564 32.2586 56.2896 32.1254 56.5227C31.9256 56.8224 31.759 57.0889 31.5592 57.3886C31.3927 57.6217 31.2262 57.8216 31.0596 58.0547C30.8598 58.3211 30.66 58.5876 30.4602 58.854C30.2936 59.0871 30.0938 59.287 29.9273 59.4868C29.7275 59.7532 29.4943 60.0197 29.2612 60.2528C29.0947 60.4526 28.8949 60.6857 28.695 60.8856C28.4619 61.1187 28.2621 61.3851 27.9956 61.6182C27.7958 61.8181 27.596 62.0179 27.3629 62.2177C27.1297 62.4509 26.8966 62.684 26.6302 62.8838C26.4303 63.0836 26.1972 63.2835 25.9974 63.45C25.7309 63.6831 25.4978 63.883 25.2314 64.0828C24.9983 64.2493 24.7651 64.4491 24.532 64.6156C24.2656 64.8155 23.9991 65.0153 23.7327 65.2151C23.4996 65.3816 23.2664 65.5482 23.0333 65.7147C22.7669 65.9145 22.5004 66.081 22.2007 66.2476C21.9676 66.4141 21.7011 66.5473 21.468 66.7138C21.1683 66.8803 20.9018 67.0469 20.6021 67.2134C20.3356 67.3466 20.1025 67.5131 19.8361 67.6463C19.5363 67.8129 19.2366 67.9461 18.9369 68.1126C18.6704 68.2458 18.404 68.379 18.1376 68.4789C17.8378 68.6122 17.5048 68.7454 17.205 68.8786C16.9386 68.9785 16.6722 69.1117 16.4057 69.2116C16.2392 69.2782 16.0727 69.3449 15.9062 69.3782C15.007 69.6779 14.0411 69.8444 13.1086 69.8111H13.0753C12.9754 69.8111 12.8755 69.8111 12.7756 69.8111C11.3102 69.6446 10.1445 68.4123 10.1445 66.8803C10.1445 66.5806 10.1778 66.2809 10.2777 66.0144L20.5022 38.1387C20.6021 37.9056 20.9351 37.9056 21.0017 38.1387C23.0999 44.2001 28.695 48.6629 35.3559 49.0958C35.5557 49.0958 35.6889 49.2957 35.6223 49.4955Z" fill="#F8EFFF"/>
</svg>
