<svg width="44" height="44" viewBox="0 0 44 44" fill="none" xmlns="http://www.w3.org/2000/svg">
<path fill-rule="evenodd" clip-rule="evenodd" d="M21.7843 0.429688C33.7298 0.429688 43.428 10.1279 43.428 22.0734C43.428 34.0188 33.7298 43.7171 21.7843 43.7171C9.83886 43.7171 0.140625 34.0188 0.140625 22.0734C0.140625 10.1279 9.83886 0.429688 21.7843 0.429688ZM34.7464 15.5615C34.4353 14.3974 33.5187 13.4808 32.3546 13.1697C30.2445 12.6043 21.7843 12.6043 21.7843 12.6043C21.7843 12.6043 13.3241 12.6043 11.214 13.1697C10.0502 13.4808 9.13333 14.3974 8.8222 15.5615C8.25701 17.6713 8.25701 22.0735 8.25701 22.0735C8.25701 22.0735 8.25701 26.4756 8.8222 28.5853C9.13333 29.7494 10.0502 30.6663 11.214 30.9773C13.3241 31.5425 21.7843 31.5425 21.7843 31.5425C21.7843 31.5425 30.2445 31.5425 32.3546 30.9773C33.5187 30.6663 34.4353 29.7494 34.7464 28.5853C35.3116 26.4756 35.3116 22.0735 35.3116 22.0735C35.3116 22.0735 35.3116 17.6713 34.7464 15.5615ZM19.0788 26.1318V18.0153L26.1076 22.0735L19.0788 26.1318Z" fill="#F8EFFF"/>
</svg>
