<svg width="31" height="22" viewBox="0 0 31 22" fill="none" xmlns="http://www.w3.org/2000/svg">
<path d="M15.6972 21.7853C12.2138 21.6755 8.90125 21.5901 5.58866 21.462C4.8749 21.4315 4.14894 21.3216 3.45348 21.1569C2.14797 20.8519 1.24509 20.0649 0.781454 18.7777C0.409323 17.7406 0.275111 16.673 0.177503 15.5872C-0.0360153 13.0371 -0.0360153 10.4871 0.0676936 7.9371C0.128699 6.49738 0.165302 5.04546 0.549635 3.64844C0.781454 2.81267 1.06208 1.9952 1.73924 1.39124C2.453 0.750689 3.28877 0.366357 4.24045 0.323653C6.85147 0.195542 9.45639 0.0369286 12.0674 0.0125265C15.5813 -0.0240766 19.1013 0.0247277 22.6152 0.0918335C24.1342 0.122336 25.6655 0.201643 27.1723 0.39686C28.551 0.579875 29.582 1.34854 30.1311 2.69066C30.552 3.72164 30.7106 4.80144 30.8021 5.89953C31.04 8.65086 31.0461 11.4022 30.9119 14.1535C30.8448 15.5506 30.7777 16.9537 30.3812 18.3141C29.9297 19.8758 28.972 20.9068 27.3736 21.2606C26.7514 21.3949 26.1047 21.4437 25.4703 21.4681C22.1516 21.584 18.839 21.6877 15.6972 21.7853ZM12.3236 14.849C15.1055 13.4093 17.8568 11.9817 20.6631 10.5237C17.8629 9.0596 15.1116 7.62598 12.3236 6.16795C12.3236 9.0779 12.3236 11.939 12.3236 14.849Z" fill="#F8EFFF"/>
</svg>
